<?xml version="1.0" encoding="utf-8"?>
<!-- Generator: Adobe Illustrator 26.3.1, SVG Export Plug-In . SVG Version: 6.00 Build 0)  -->
<svg version="1.1" id="Layer_1" xmlns="http://www.w3.org/2000/svg" xmlns:xlink="http://www.w3.org/1999/xlink" x="0px" y="0px"
	 viewBox="0 0 434.79 475.44" style="enable-background:new 0 0 434.79 475.44;" xml:space="preserve">
<style type="text/css">
	.st0{opacity:0.74;fill:#4D4D4F;}
	.st1{opacity:0.81;fill:#797A7D;}
	.st2{opacity:0.51;fill:#4D4D4F;}
	.st3{opacity:0.9;fill:#FFDF32;}
	.st4{opacity:0.57;fill:#A3A5A8;}
	.st5{opacity:0.2;fill:#A3A5A8;}
	.st6{opacity:0.7;fill:#4D4D4F;}
	.st7{opacity:0.39;fill:#797A7D;}
	.st8{opacity:0.17;fill:#545456;}
	.st9{opacity:0.36;fill:#FFDF32;}
	.st10{opacity:0.95;fill:#545456;}
	.st11{opacity:0.46;fill:#4D4D4F;}
	.st12{opacity:0.87;fill:#797A7D;}
	.st13{opacity:0.61;fill:#4D4D4F;}
	.st14{opacity:0.34;fill:#FFDF32;}
	.st15{opacity:0.48;fill:#A3A5A8;}
	.st16{opacity:0.87;fill:#4D4D4F;}
	.st17{opacity:0.74;fill:#C2C4C6;}
	.st18{opacity:0.96;fill:#A3A5A8;}
	.st19{opacity:0.55;fill:#FFDF00;}
	.st20{opacity:0.39;fill:#A3A5A8;}
	.st21{opacity:0.44;fill:#4D4D4F;}
	.st22{opacity:0.18;fill:#FFDF00;}
	.st23{opacity:0.58;fill:#4D4D4F;}
	.st24{opacity:0.59;fill:#FFDF00;}
	.st25{opacity:0.92;fill:#FFDF32;}
	.st26{opacity:0.82;fill:#FFDF00;}
	.st27{opacity:0.76;fill:#C2C4C6;}
	.st28{opacity:0.99;fill:#939598;}
	.st29{opacity:0.86;fill:#797A7D;}
	.st30{opacity:0.49;fill:#C2C4C6;}
	.st31{opacity:0.75;fill:#C2C4C6;}
	.st32{opacity:0.92;fill:#545456;}
	.st33{opacity:0.63;fill:#545456;}
	.st34{opacity:0.25;fill:#FFDF32;}
	.st35{opacity:0.52;fill:#4D4D4F;}
	.st36{opacity:0.74;fill:#FFDF32;}
	.st37{opacity:0.91;fill:#A3A5A8;}
	.st38{opacity:0.39;fill:#4D4D4F;}
	.st39{opacity:0.71;fill:#4D4D4F;}
	.st40{opacity:0.23;fill:#C2C4C6;}
	.st41{opacity:0.94;fill:#545456;}
	.st42{opacity:0.66;fill:#C2C4C6;}
	.st43{opacity:0.19;fill:#4D4D4F;}
	.st44{opacity:0.38;fill:#545456;}
	.st45{opacity:0.67;fill:#FFDF00;}
	.st46{opacity:0.47;fill:#FFDF00;}
	.st47{opacity:0.57;fill:#FFDF00;}
	.st48{opacity:0.34;fill:#C2C4C6;}
	.st49{opacity:0.67;fill:#FFDF32;}
	.st50{opacity:0.22;fill:#C2C4C6;}
	.st51{opacity:0.63;fill:#4D4D4F;}
	.st52{opacity:0.75;fill:#4D4D4F;}
	.st53{opacity:0.29;fill:#FFDF32;}
	.st54{opacity:0.4;fill:#A3A5A8;}
	.st55{opacity:0.43;fill:#545456;}
	.st56{opacity:0.1;fill:#FFDF00;}
	.st57{opacity:0.81;fill:#4D4D4F;}
	.st58{opacity:0.75;fill:#A3A5A8;}
	.st59{opacity:0.98;fill:#FFDF00;}
	.st60{opacity:0.12;fill:#FFDF00;}
	.st61{opacity:0.71;fill:#FFDF00;}
	.st62{opacity:0.52;fill:#FFDF32;}
	.st63{opacity:0.91;fill:#FFDF32;}
	.st64{opacity:0.91;fill:#545456;}
	.st65{opacity:0.66;fill:#4D4D4F;}
	.st66{opacity:0.5;fill:#939598;}
	.st67{opacity:0.12;fill:#4D4D4F;}
	.st68{opacity:0.8;fill:#939598;}
	.st69{opacity:0.46;fill:#A3A5A8;}
	.st70{opacity:0.95;fill:#FFDF00;}
	.st71{opacity:0.99;fill:#A3A5A8;}
	.st72{opacity:0.74;fill:#797A7D;}
	.st73{opacity:0.25;fill:#545456;}
	.st74{opacity:0.49;fill:#FFDF32;}
	.st75{opacity:0.65;fill:#939598;}
	.st76{opacity:0.59;fill:#797A7D;}
	.st77{opacity:0.2;fill:#FFDF32;}
	.st78{opacity:0.11;fill:#4D4D4F;}
	.st79{opacity:0.96;fill:#4D4D4F;}
	.st80{opacity:0.82;fill:#545456;}
	.st81{opacity:0.7;fill:#FFDF00;}
	.st82{opacity:0.31;fill:#4D4D4F;}
	.st83{opacity:0.81;fill:#939598;}
	.st84{opacity:0.45;fill:#FFDF00;}
	.st85{opacity:0.49;fill:#4D4D4F;}
	.st86{opacity:0.33;fill:#545456;}
	.st87{opacity:0.83;fill:#FFDF00;}
	.st88{opacity:0.75;fill:#FFDF32;}
	.st89{opacity:0.54;fill:#797A7D;}
	.st90{opacity:0.29;fill:#FFDF00;}
	.st91{opacity:0.14;fill:#FFDF32;}
	.st92{opacity:0.69;fill:#FFDF32;}
	.st93{opacity:0.72;fill:#545456;}
	.st94{opacity:0.52;fill:#FFDF00;}
	.st95{opacity:0.65;fill:#797A7D;}
	.st96{opacity:0.13;fill:#FFDF32;}
	.st97{opacity:0.18;fill:#4D4D4F;}
	.st98{opacity:0.54;fill:#FFDF00;}
	.st99{opacity:0.53;fill:#797A7D;}
	.st100{opacity:0.16;fill:#FFDF00;}
	.st101{opacity:0.79;fill:#545456;}
	.st102{opacity:0.68;fill:#A3A5A8;}
	.st103{opacity:0.24;fill:#939598;}
	.st104{opacity:0.88;fill:#FFDF32;}
	.st105{opacity:0.44;fill:#C2C4C6;}
	.st106{opacity:0.4;fill:#545456;}
	.st107{opacity:0.87;fill:#C2C4C6;}
	.st108{opacity:0.92;fill:#FFDF00;}
	.st109{fill:#A3A5A8;}
	.st110{fill:#797A7D;}
	.st111{fill:#FFDF32;}
	.st112{fill:#545456;}
	.st113{fill:#C2C4C6;}
	.st114{fill:#FFDF00;}
	.st115{opacity:0.14;fill:#4D4D4F;}
	.st116{opacity:0.8;fill:#4D4D4F;}
	.st117{opacity:0.57;fill:#939598;}
	.st118{opacity:0.54;fill:#C2C4C6;}
	.st119{opacity:0.48;fill:#4D4D4F;}
	.st120{opacity:0.8;fill:#C2C4C6;}
	.st121{opacity:0.6;fill:#C2C4C6;}
	.st122{opacity:0.26;fill:#A3A5A8;}
	.st123{opacity:0.22;fill:#939598;}
	.st124{opacity:0.98;fill:#797A7D;}
	.st125{opacity:0.45;fill:#A3A5A8;}
	.st126{opacity:0.95;fill:#A3A5A8;}
	.st127{opacity:0.24;fill:#FFDF00;}
	.st128{opacity:0.56;fill:#FFDF32;}
	.st129{opacity:0.92;fill:#797A7D;}
	.st130{opacity:0.43;fill:#4D4D4F;}
	.st131{opacity:0.85;fill:#4D4D4F;}
	.st132{opacity:0.42;fill:#C2C4C6;}
	.st133{opacity:0.81;fill:#FFDF00;}
	.st134{opacity:0.34;fill:#939598;}
	.st135{opacity:0.88;fill:#FFDF00;}
	.st136{opacity:0.3;fill:#545456;}
	.st137{opacity:0.21;fill:#4D4D4F;}
	.st138{opacity:0.46;fill:#797A7D;}
	.st139{opacity:0.2;fill:#797A7D;}
	.st140{opacity:0.38;fill:#C2C4C6;}
	.st141{opacity:0.85;fill:#A3A5A8;}
	.st142{opacity:0.2;fill:#C2C4C6;}
	.st143{opacity:0.35;fill:#4D4D4F;}
	.st144{opacity:0.89;fill:#FFDF00;}
	.st145{opacity:0.32;fill:#A3A5A8;}
	.st146{opacity:0.96;fill:#797A7D;}
	.st147{opacity:0.37;fill:#797A7D;}
	.st148{opacity:0.92;fill:#A3A5A8;}
	.st149{opacity:0.43;fill:#C2C4C6;}
	.st150{opacity:0.26;fill:#C2C4C6;}
	.st151{opacity:0.25;fill:#C2C4C6;}
	.st152{opacity:0.77;fill:#797A7D;}
	.st153{opacity:0.72;fill:#797A7D;}
	.st154{opacity:0.2;fill:#939598;}
	.st155{opacity:0.51;fill:#C2C4C6;}
	.st156{opacity:0.5;fill:#545456;}
	.st157{opacity:0.47;fill:#939598;}
</style>
<g>
	<path class="st0" d="M82.65,19.95c1.22,0,2.22-0.99,2.22-2.22c0-1.22-0.99-2.22-2.22-2.22c-1.22,0-2.22,0.99-2.22,2.22
		C80.44,18.96,81.43,19.95,82.65,19.95z"/>
	<path class="st1" d="M95.04,22.06c2.39,0,4.32-1.94,4.32-4.32c0-2.39-1.94-4.32-4.32-4.32c-2.39,0-4.32,1.93-4.32,4.32
		C90.71,20.12,92.65,22.06,95.04,22.06z"/>
	<path class="st2" d="M206.23,25.71c4.41,0,7.98-3.57,7.98-7.98c0-4.41-3.57-7.98-7.98-7.98c-4.41,0-7.98,3.57-7.98,7.98
		C198.25,22.14,201.83,25.71,206.23,25.71z"/>
	<path class="st3" d="M186.52,27.26c5.26,0,9.53-4.27,9.53-9.53c0-5.26-4.27-9.53-9.53-9.53c-5.26,0-9.53,4.27-9.53,9.53
		C176.99,23,181.25,27.26,186.52,27.26z"/>
	<path class="st4" d="M189.25,28.93c6.18,0,11.19-5.01,11.19-11.19c0-6.18-5.01-11.19-11.19-11.19c-6.18,0-11.19,5.01-11.19,11.19
		C178.05,23.91,183.07,28.93,189.25,28.93z"/>
	<path class="st5" d="M139.32,30.15c6.86,0,12.41-5.56,12.41-12.41c0-6.86-5.56-12.41-12.41-12.41c-6.86,0-12.41,5.56-12.41,12.41
		C126.9,24.59,132.46,30.15,139.32,30.15z"/>
	<path class="st6" d="M228.42,31.36c7.53,0,13.63-6.1,13.63-13.63c0-7.53-6.1-13.63-13.63-13.63s-13.63,6.1-13.63,13.63
		C214.79,25.26,220.9,31.36,228.42,31.36z"/>
	
		<ellipse transform="matrix(0.9997 -0.025 0.025 0.9997 -0.3424 8.049)" class="st7" cx="322.04" cy="17.73" rx="14.74" ry="14.74"/>
	<path class="st8" d="M288.49,33.47c8.69,0,15.74-7.05,15.74-15.74c0-8.69-7.05-15.74-15.74-15.74c-8.69,0-15.74,7.05-15.74,15.74
		C272.75,26.42,279.8,33.47,288.49,33.47z"/>
	<path class="st9" d="M285.39,34.25c9.12,0,16.51-7.39,16.51-16.51c0-9.12-7.39-16.51-16.51-16.51c-9.12,0-16.51,7.39-16.51,16.51
		C268.88,26.85,276.27,34.25,285.39,34.25z"/>
	<path class="st10" d="M414.19,34.91c9.49,0,17.18-7.69,17.18-17.18c0-9.49-7.69-17.18-17.18-17.18c-9.49,0-17.18,7.69-17.18,17.18
		C397.01,27.22,404.7,34.91,414.19,34.91z"/>
	<path class="st11" d="M364.26,35.47c9.79,0,17.73-7.94,17.73-17.73c0-9.79-7.94-17.73-17.73-17.73c-9.79,0-17.73,7.94-17.73,17.73
		C346.53,27.53,354.47,35.47,364.26,35.47z"/>
	<path class="st12" d="M41.38,65.68c4.41,0,7.98-3.57,7.98-7.98c0-4.41-3.57-7.98-7.98-7.98c-4.41,0-7.98,3.57-7.98,7.98
		C33.4,62.11,36.97,65.68,41.38,65.68z"/>
	
		<ellipse transform="matrix(0.0277 -0.9996 0.9996 0.0277 116.5543 235.236)" class="st13" cx="179.21" cy="57.7" rx="9.53" ry="9.53"/>
	<path class="st14" d="M92.12,68.89c6.18,0,11.19-5.01,11.19-11.19c0-6.18-5.01-11.19-11.19-11.19c-6.18,0-11.19,5.01-11.19,11.19
		C80.93,63.88,85.94,68.89,92.12,68.89z"/>
	<path class="st15" d="M240.95,70.11c6.86,0,12.41-5.56,12.41-12.41c0-6.86-5.56-12.41-12.41-12.41c-6.86,0-12.41,5.56-12.41,12.41
		C228.53,64.56,234.09,70.11,240.95,70.11z"/>
	<path class="st16" d="M309.43,71.33c7.53,0,13.63-6.1,13.63-13.63c0-7.53-6.1-13.63-13.63-13.63c-7.53,0-13.63,6.1-13.63,13.63
		C295.79,65.23,301.9,71.33,309.43,71.33z"/>
	<path class="st17" d="M220.89,72.44c8.14,0,14.74-6.6,14.74-14.74c0-8.14-6.6-14.74-14.74-14.74c-8.14,0-14.74,6.6-14.74,14.74
		C206.15,65.84,212.75,72.44,220.89,72.44z"/>
	<path class="st12" d="M250.64,73.44c8.69,0,15.74-7.05,15.74-15.74c0-8.69-7.05-15.74-15.74-15.74c-8.69,0-15.74,7.05-15.74,15.74
		C234.9,66.39,241.95,73.44,250.64,73.44z"/>
	<path class="st18" d="M277.85,74.21c9.12,0,16.51-7.39,16.51-16.51c0-9.12-7.39-16.51-16.51-16.51c-9.12,0-16.51,7.39-16.51,16.51
		C261.34,66.82,268.73,74.21,277.85,74.21z"/>
	<path class="st19" d="M407.06,74.88c9.49,0,17.18-7.69,17.18-17.18c0-9.49-7.69-17.18-17.18-17.18s-17.18,7.69-17.18,17.18
		C389.89,67.19,397.58,74.88,407.06,74.88z"/>
	
		<ellipse transform="matrix(0.02 -0.9998 0.9998 0.02 331.828 453.9297)" class="st20" cx="397.46" cy="57.7" rx="18.18" ry="18.18"/>
	<path class="st21" d="M61.67,101.99c2.39,0,4.32-1.94,4.32-4.32c0-2.39-1.94-4.32-4.32-4.32c-2.39,0-4.32,1.94-4.32,4.32
		C57.35,100.06,59.28,101.99,61.67,101.99z"/>
	
		<ellipse transform="matrix(0.9999 -0.0119 0.0119 0.9999 -1.1534 1.5187)" class="st9" cx="127.02" cy="97.67" rx="9.53" ry="9.53"/>
	<path class="st9" d="M161.44,108.86c6.18,0,11.19-5.01,11.19-11.19c0-6.18-5.01-11.19-11.19-11.19c-6.18,0-11.19,5.01-11.19,11.19
		C150.25,103.85,155.26,108.86,161.44,108.86z"/>
	<path class="st22" d="M213.66,110.08c6.86,0,12.41-5.56,12.41-12.41c0-6.86-5.56-12.41-12.41-12.41c-6.86,0-12.41,5.56-12.41,12.41
		C201.24,104.52,206.8,110.08,213.66,110.08z"/>
	<path class="st23" d="M342.86,111.3c7.53,0,13.63-6.1,13.63-13.63c0-7.53-6.1-13.63-13.63-13.63s-13.63,6.1-13.63,13.63
		C329.23,105.2,335.33,111.3,342.86,111.3z"/>
	<path class="st24" d="M380.36,112.41c8.14,0,14.74-6.6,14.74-14.74c0-8.14-6.6-14.74-14.74-14.74c-8.14,0-14.74,6.6-14.74,14.74
		C365.62,105.81,372.22,112.41,380.36,112.41z"/>
	<path class="st25" d="M354.44,113.41c8.69,0,15.74-7.05,15.74-15.74c0-8.69-7.05-15.74-15.74-15.74c-8.69,0-15.74,7.05-15.74,15.74
		C338.7,106.36,345.75,113.41,354.44,113.41z"/>
	
		<ellipse transform="matrix(0.7071 -0.7071 0.7071 0.7071 31.5995 271.6258)" class="st26" cx="343.68" cy="97.67" rx="17.18" ry="17.18"/>
	
		<ellipse transform="matrix(0.7071 -0.7071 0.7071 0.7071 16.3984 321.1403)" class="st26" cx="395.85" cy="140.78" rx="17.18" ry="17.18"/>
	<path class="st27" d="M387.02,115.4c9.79,0,17.73-7.94,17.73-17.73s-7.94-17.73-17.73-17.73c-9.79,0-17.73,7.94-17.73,17.73
		S377.23,115.4,387.02,115.4z"/>
	<path class="st28" d="M30.38,139.85c1.22,0,2.22-0.99,2.22-2.22c0-1.22-0.99-2.22-2.22-2.22c-1.22,0-2.22,0.99-2.22,2.22
		C28.16,138.86,29.16,139.85,30.38,139.85z"/>
	<path class="st29" d="M73.25,141.96c2.39,0,4.32-1.94,4.32-4.32c0-2.39-1.94-4.32-4.32-4.32c-2.39,0-4.32,1.94-4.32,4.32
		C68.93,140.02,70.86,141.96,73.25,141.96z"/>
	<path class="st30" d="M42.65,143.84c3.43,0,6.21-2.78,6.21-6.21c0-3.43-2.78-6.21-6.21-6.21c-3.43,0-6.21,2.78-6.21,6.21
		C36.44,141.06,39.22,143.84,42.65,143.84z"/>
	<path class="st31" d="M208.35,145.62c4.41,0,7.98-3.57,7.98-7.98c0-4.41-3.57-7.98-7.98-7.98c-4.41,0-7.98,3.57-7.98,7.98
		C200.37,142.04,203.94,145.62,208.35,145.62z"/>
	<path class="st32" d="M102.94,147.17c5.26,0,9.53-4.27,9.53-9.53c0-5.26-4.27-9.53-9.53-9.53c-5.26,0-9.53,4.27-9.53,9.53
		C93.4,142.9,97.67,147.17,102.94,147.17z"/>
	<path class="st33" d="M153.99,148.83c6.18,0,11.19-5.01,11.19-11.19c0-6.18-5.01-11.19-11.19-11.19c-6.18,0-11.19,5.01-11.19,11.19
		C142.8,143.82,147.81,148.83,153.99,148.83z"/>
	<path class="st34" d="M333.11,150.05c6.86,0,12.41-5.56,12.41-12.41c0-6.86-5.56-12.41-12.41-12.41s-12.41,5.56-12.41,12.41
		C320.7,144.49,326.26,150.05,333.11,150.05z"/>
	<path class="st35" d="M338.63,151.27c7.53,0,13.63-6.1,13.63-13.63c0-7.53-6.1-13.63-13.63-13.63S325,130.11,325,137.64
		C325,145.17,331.1,151.27,338.63,151.27z"/>
	<path class="st36" d="M228.57,152.38c8.14,0,14.74-6.6,14.74-14.74c0-8.14-6.6-14.74-14.74-14.74c-8.14,0-14.74,6.6-14.74,14.74
		C213.83,145.78,220.43,152.38,228.57,152.38z"/>
	<path class="st37" d="M205.8,153.37c8.69,0,15.74-7.05,15.74-15.74c0-8.69-7.05-15.74-15.74-15.74c-8.69,0-15.74,7.05-15.74,15.74
		C190.07,146.33,197.11,153.37,205.8,153.37z"/>
	<path class="st38" d="M291.49,154.82c9.49,0,17.18-7.69,17.18-17.18s-7.69-17.18-17.18-17.18c-9.49,0-17.18,7.69-17.18,17.18
		S282,154.82,291.49,154.82z"/>
	<path class="st38" d="M404.06,223.6c9.49,0,17.18-7.69,17.18-17.18s-7.69-17.18-17.18-17.18c-9.49,0-17.18,7.69-17.18,17.18
		S394.57,223.6,404.06,223.6z"/>
	<circle class="st39" cx="345.86" cy="137.64" r="17.73"/>
	<circle class="st39" cx="415.23" cy="193.34" r="17.73"/>
	<path class="st40" d="M59.69,179.82c1.22,0,2.22-0.99,2.22-2.22c0-1.22-0.99-2.22-2.22-2.22c-1.22,0-2.22,0.99-2.22,2.22
		C57.48,178.83,58.47,179.82,59.69,179.82z"/>
	<path class="st41" d="M23.58,181.93c2.39,0,4.32-1.94,4.32-4.32c0-2.39-1.94-4.32-4.32-4.32c-2.39,0-4.32,1.94-4.32,4.32
		C19.26,179.99,21.19,181.93,23.58,181.93z"/>
	<path class="st42" d="M68.53,183.81c3.43,0,6.21-2.78,6.21-6.21c0-3.43-2.78-6.21-6.21-6.21c-3.43,0-6.21,2.78-6.21,6.21
		C62.32,181.03,65.1,183.81,68.53,183.81z"/>
	
		<ellipse transform="matrix(5.906229e-03 -1 1 5.906229e-03 -96.1674 258.4732)" class="st9" cx="81.92" cy="177.61" rx="7.98" ry="7.98"/>
	<path class="st43" d="M91.64,188.8c6.18,0,11.19-5.01,11.19-11.19c0-6.18-5.01-11.19-11.19-11.19c-6.18,0-11.19,5.01-11.19,11.19
		C80.45,183.79,85.46,188.8,91.64,188.8z"/>
	<path class="st44" d="M303.99,190.02c6.86,0,12.41-5.56,12.41-12.41c0-6.86-5.56-12.41-12.41-12.41c-6.86,0-12.41,5.56-12.41,12.41
		C291.58,184.46,297.14,190.02,303.99,190.02z"/>
	<path class="st45" d="M280.2,191.24c7.53,0,13.63-6.1,13.63-13.63c0-7.53-6.1-13.63-13.63-13.63c-7.53,0-13.63,6.1-13.63,13.63
		C266.57,185.13,272.68,191.24,280.2,191.24z"/>
	<path class="st46" d="M236.94,193.34c8.69,0,15.74-7.05,15.74-15.74c0-8.69-7.05-15.74-15.74-15.74c-8.69,0-15.74,7.05-15.74,15.74
		C221.2,186.3,228.24,193.34,236.94,193.34z"/>
	<path class="st47" d="M332.66,194.12c9.12,0,16.51-7.39,16.51-16.51c0-9.12-7.39-16.51-16.51-16.51c-9.12,0-16.51,7.39-16.51,16.51
		C316.14,186.72,323.54,194.12,332.66,194.12z"/>
	<path class="st48" d="M16.18,219.79c1.22,0,2.22-0.99,2.22-2.22c0-1.22-0.99-2.22-2.22-2.22c-1.22,0-2.22,0.99-2.22,2.22
		C13.96,218.8,14.95,219.79,16.18,219.79z"/>
	<path class="st49" d="M7.01,221.89c2.39,0,4.32-1.93,4.32-4.32c0-2.39-1.94-4.32-4.32-4.32c-2.39,0-4.32,1.93-4.32,4.32
		C2.68,219.96,4.62,221.89,7.01,221.89z"/>
	<path class="st31" d="M6.21,223.78c3.43,0,6.21-2.78,6.21-6.21c0-3.43-2.78-6.21-6.21-6.21c-3.43,0-6.21,2.78-6.21,6.21
		C0,221,2.78,223.78,6.21,223.78z"/>
	<path class="st50" d="M22.3,225.55c4.41,0,7.98-3.57,7.98-7.98c0-4.41-3.57-7.98-7.98-7.98c-4.41,0-7.98,3.57-7.98,7.98
		C14.32,221.98,17.9,225.55,22.3,225.55z"/>
	<path class="st51" d="M181.44,227.1c5.26,0,9.53-4.27,9.53-9.53c0-5.26-4.27-9.53-9.53-9.53c-5.26,0-9.53,4.27-9.53,9.53
		C171.91,222.84,176.18,227.1,181.44,227.1z"/>
	<path class="st52" d="M53.01,228.77c6.18,0,11.19-5.01,11.19-11.2c0-6.18-5.01-11.19-11.19-11.19c-6.18,0-11.19,5.01-11.19,11.19
		C41.82,223.75,46.83,228.77,53.01,228.77z"/>
	<path class="st53" d="M322.99,229.99c6.86,0,12.41-5.56,12.41-12.41c0-6.86-5.56-12.41-12.41-12.41c-6.86,0-12.41,5.56-12.41,12.41
		C310.58,224.43,316.14,229.99,322.99,229.99z"/>
	<path class="st54" d="M361.31,231.21c7.53,0,13.63-6.1,13.63-13.63c0-7.53-6.1-13.63-13.63-13.63c-7.53,0-13.63,6.1-13.63,13.63
		C347.68,225.1,353.78,231.21,361.31,231.21z"/>
	<path class="st55" d="M138.52,232.31c8.14,0,14.74-6.6,14.74-14.74c0-8.14-6.6-14.74-14.74-14.74c-8.14,0-14.74,6.6-14.74,14.74
		C123.78,225.71,130.38,232.31,138.52,232.31z"/>
	<path class="st56" d="M221.26,233.31c8.69,0,15.74-7.05,15.74-15.74c0-8.69-7.05-15.74-15.74-15.74c-8.69,0-15.74,7.05-15.74,15.74
		C205.53,226.26,212.57,233.31,221.26,233.31z"/>
	<path class="st57" d="M249.21,234.09c9.12,0,16.51-7.39,16.51-16.51c0-9.12-7.39-16.51-16.51-16.51c-9.12,0-16.51,7.39-16.51,16.51
		C232.7,226.69,240.09,234.09,249.21,234.09z"/>
	<path class="st58" d="M350.26,235.3c9.79,0,17.73-7.94,17.73-17.73c0-9.79-7.94-17.73-17.73-17.73c-9.79,0-17.73,7.94-17.73,17.73
		C332.52,227.37,340.46,235.3,350.26,235.3z"/>
	<path class="st35" d="M46.38,259.76c1.22,0,2.22-0.99,2.22-2.22c0-1.22-0.99-2.22-2.22-2.22c-1.22,0-2.22,0.99-2.22,2.22
		C44.16,258.76,45.15,259.76,46.38,259.76z"/>
	<path class="st59" d="M50.95,261.86c2.39,0,4.32-1.93,4.32-4.32c0-2.39-1.94-4.32-4.32-4.32c-2.39,0-4.32,1.94-4.32,4.32
		C46.62,259.93,48.56,261.86,50.95,261.86z"/>
	<path class="st60" d="M74.82,263.75c3.43,0,6.21-2.78,6.21-6.21c0-3.43-2.78-6.21-6.21-6.21c-3.43,0-6.21,2.78-6.21,6.21
		C68.62,260.97,71.4,263.75,74.82,263.75z"/>
	<path class="st61" d="M162.58,265.52c4.41,0,7.98-3.57,7.98-7.98c0-4.41-3.57-7.98-7.98-7.98c-4.41,0-7.98,3.57-7.98,7.98
		C154.6,261.95,158.17,265.52,162.58,265.52z"/>
	<path class="st62" d="M248.89,267.07c5.26,0,9.53-4.27,9.53-9.53c0-5.26-4.27-9.53-9.53-9.53c-5.26,0-9.53,4.27-9.53,9.53
		C239.35,262.8,243.62,267.07,248.89,267.07z"/>
	<path class="st63" d="M51.63,268.73c6.18,0,11.19-5.01,11.19-11.19c0-6.18-5.01-11.19-11.19-11.19c-6.18,0-11.19,5.01-11.19,11.19
		C40.43,263.72,45.45,268.73,51.63,268.73z"/>
	<path class="st64" d="M346.31,269.95c6.86,0,12.41-5.56,12.41-12.41c0-6.86-5.56-12.41-12.41-12.41c-6.86,0-12.41,5.56-12.41,12.41
		C333.89,264.4,339.45,269.95,346.31,269.95z"/>
	<circle class="st65" cx="339.96" cy="257.54" r="13.63"/>
	<path class="st66" d="M189.99,272.28c8.14,0,14.74-6.6,14.74-14.74c0-8.14-6.6-14.74-14.74-14.74c-8.14,0-14.74,6.6-14.74,14.74
		C175.25,265.68,181.85,272.28,189.99,272.28z"/>
	<path class="st67" d="M396.79,273.28c8.69,0,15.74-7.05,15.74-15.74c0-8.69-7.05-15.74-15.74-15.74c-8.69,0-15.74,7.05-15.74,15.74
		C381.05,266.23,388.1,273.28,396.79,273.28z"/>
	
		<ellipse transform="matrix(0.7071 -0.7071 0.7071 0.7071 -80.1283 321.6346)" class="st30" cx="348.18" cy="257.54" rx="17.73" ry="17.73"/>
	
		<ellipse transform="matrix(0.7071 -0.7071 0.7071 0.7071 -65.7822 356.269)" class="st7" cx="397.16" cy="257.54" rx="18.07" ry="18.07"/>
	<path class="st68" d="M133.24,301.83c2.39,0,4.32-1.93,4.32-4.32c0-2.39-1.93-4.32-4.32-4.32c-2.39,0-4.32,1.93-4.32,4.32
		C128.92,299.9,130.85,301.83,133.24,301.83z"/>
	<path class="st69" d="M88.13,303.72c3.43,0,6.21-2.78,6.21-6.21c0-3.43-2.78-6.21-6.21-6.21c-3.43,0-6.21,2.78-6.21,6.21
		C81.92,300.94,84.7,303.72,88.13,303.72z"/>
	<path class="st70" d="M234.47,307.04c5.26,0,9.53-4.27,9.53-9.53c0-5.26-4.27-9.53-9.53-9.53c-5.26,0-9.53,4.27-9.53,9.53
		C224.94,302.77,229.2,307.04,234.47,307.04z"/>
	<path class="st71" d="M207.7,309.92c6.85,0,12.41-5.56,12.41-12.41c0-6.85-5.56-12.41-12.41-12.41c-6.86,0-12.41,5.56-12.41,12.41
		C195.29,304.36,200.84,309.92,207.7,309.92z"/>
	<path class="st72" d="M212.32,311.14c7.53,0,13.63-6.1,13.63-13.63c0-7.53-6.1-13.63-13.63-13.63s-13.63,6.1-13.63,13.63
		C198.69,305.04,204.79,311.14,212.32,311.14z"/>
	<path class="st62" d="M392.91,312.25c8.14,0,14.74-6.6,14.74-14.74c0-8.14-6.6-14.74-14.74-14.74c-8.14,0-14.74,6.6-14.74,14.74
		C378.17,305.65,384.77,312.25,392.91,312.25z"/>
	<path class="st73" d="M319.65,313.25c8.69,0,15.74-7.05,15.74-15.74c0-8.69-7.05-15.74-15.74-15.74c-8.69,0-15.74,7.05-15.74,15.74
		C303.91,306.2,310.96,313.25,319.65,313.25z"/>
	<path class="st74" d="M235.05,314.02c9.12,0,16.51-7.39,16.51-16.51c0-9.12-7.39-16.51-16.51-16.51c-9.12,0-16.51,7.39-16.51,16.51
		C218.54,306.63,225.93,314.02,235.05,314.02z"/>
	<path class="st75" d="M386.88,314.69c9.49,0,17.18-7.69,17.18-17.18c0-9.49-7.69-17.18-17.18-17.18c-9.49,0-17.18,7.69-17.18,17.18
		C369.7,307,377.39,314.69,386.88,314.69z"/>
	<path class="st76" d="M394.53,315.24c9.79,0,17.73-7.94,17.73-17.73c0-9.79-7.94-17.73-17.73-17.73c-9.79,0-17.73,7.94-17.73,17.73
		C376.8,307.3,384.74,315.24,394.53,315.24z"/>
	<path class="st77" d="M40.33,339.69c1.22,0,2.22-0.99,2.22-2.22c0-1.22-0.99-2.22-2.22-2.22c-1.22,0-2.22,0.99-2.22,2.22
		C38.11,338.7,39.1,339.69,40.33,339.69z"/>
	<path class="st78" d="M127.82,341.8c2.39,0,4.32-1.93,4.32-4.32c0-2.39-1.94-4.32-4.32-4.32c-2.39,0-4.32,1.93-4.32,4.32
		C123.5,339.86,125.43,341.8,127.82,341.8z"/>
	<path class="st79" d="M134.66,345.46c4.41,0,7.98-3.57,7.98-7.98c0-4.41-3.57-7.98-7.98-7.98c-4.41,0-7.98,3.57-7.98,7.98
		C126.68,341.88,130.25,345.46,134.66,345.46z"/>
	<path class="st80" d="M195.01,347.01c5.26,0,9.53-4.27,9.53-9.53c0-5.26-4.27-9.53-9.53-9.53c-5.26,0-9.53,4.27-9.53,9.53
		C185.48,342.74,189.75,347.01,195.01,347.01z"/>
	<path class="st81" d="M197.56,348.67c6.18,0,11.19-5.01,11.19-11.19c0-6.18-5.01-11.19-11.19-11.19c-6.18,0-11.19,5.01-11.19,11.19
		C186.36,343.66,191.38,348.67,197.56,348.67z"/>
	<path class="st9" d="M176.44,349.89c6.86,0,12.41-5.56,12.41-12.41c0-6.86-5.56-12.41-12.41-12.41c-6.86,0-12.41,5.56-12.41,12.41
		C164.02,344.33,169.58,349.89,176.44,349.89z"/>
	<path class="st82" d="M246.81,351.11c7.53,0,13.63-6.1,13.63-13.63c0-7.53-6.1-13.63-13.63-13.63c-7.53,0-13.63,6.1-13.63,13.63
		C233.18,345.01,239.28,351.11,246.81,351.11z"/>
	<path class="st79" d="M320.71,352.22c8.14,0,14.74-6.6,14.74-14.74c0-8.14-6.6-14.74-14.74-14.74c-8.14,0-14.74,6.6-14.74,14.74
		C305.97,345.62,312.57,352.22,320.71,352.22z"/>
	<path class="st83" d="M205.09,353.21c8.69,0,15.74-7.05,15.74-15.74c0-8.69-7.05-15.74-15.74-15.74c-8.69,0-15.74,7.05-15.74,15.74
		C189.35,346.17,196.39,353.21,205.09,353.21z"/>
	<path class="st84" d="M304.12,353.99c9.12,0,16.51-7.39,16.51-16.51c0-9.12-7.39-16.51-16.51-16.51c-9.12,0-16.51,7.39-16.51,16.51
		C287.61,346.6,295,353.99,304.12,353.99z"/>
	<path class="st85" d="M102.51,383.65c3.43,0,6.21-2.78,6.21-6.21c0-3.43-2.78-6.21-6.21-6.21c-3.43,0-6.21,2.78-6.21,6.21
		C96.3,380.87,99.08,383.65,102.51,383.65z"/>
	<path class="st86" d="M139.11,385.42c4.41,0,7.98-3.57,7.98-7.98c0-4.41-3.57-7.98-7.98-7.98c-4.41,0-7.98,3.57-7.98,7.98
		C131.13,381.85,134.7,385.42,139.11,385.42z"/>
	<path class="st87" d="M77.07,386.98c5.26,0,9.53-4.27,9.53-9.53c0-5.26-4.27-9.53-9.53-9.53c-5.26,0-9.53,4.27-9.53,9.53
		C67.53,382.71,71.8,386.98,77.07,386.98z"/>
	<path class="st81" d="M145.79,388.64c6.18,0,11.19-5.01,11.19-11.2c0-6.18-5.01-11.19-11.19-11.19c-6.18,0-11.19,5.01-11.19,11.19
		C134.6,383.63,139.61,388.64,145.79,388.64z"/>
	<path class="st88" d="M272.78,389.86c6.86,0,12.41-5.56,12.41-12.41c0-6.86-5.56-12.41-12.41-12.41c-6.86,0-12.41,5.56-12.41,12.41
		C260.37,384.3,265.92,389.86,272.78,389.86z"/>
	<path class="st27" d="M308.12,391.08c7.53,0,13.63-6.1,13.63-13.63c0-7.53-6.1-13.63-13.63-13.63c-7.53,0-13.63,6.1-13.63,13.63
		C294.49,384.97,300.59,391.08,308.12,391.08z"/>
	<path class="st89" d="M183.92,392.19c8.14,0,14.74-6.6,14.74-14.74c0-8.14-6.6-14.74-14.74-14.74c-8.14,0-14.74,6.6-14.74,14.74
		C169.18,385.59,175.78,392.19,183.92,392.19z"/>
	<path class="st90" d="M375.25,393.18c8.69,0,15.74-7.05,15.74-15.74c0-8.69-7.05-15.74-15.74-15.74s-15.74,7.05-15.74,15.74
		C359.51,386.14,366.56,393.18,375.25,393.18z"/>
	<path class="st91" d="M268.16,393.96c9.12,0,16.51-7.39,16.51-16.51c0-9.12-7.39-16.51-16.51-16.51c-9.12,0-16.51,7.39-16.51,16.51
		C251.65,386.56,259.04,393.96,268.16,393.96z"/>
	<path class="st54" d="M376.26,394.62c9.49,0,17.18-7.69,17.18-17.18c0-9.49-7.69-17.18-17.18-17.18c-9.49,0-17.18,7.69-17.18,17.18
		C359.08,386.93,366.77,394.62,376.26,394.62z"/>
	<path class="st92" d="M41.9,419.63c1.22,0,2.22-0.99,2.22-2.22c0-1.22-0.99-2.22-2.22-2.22c-1.22,0-2.22,0.99-2.22,2.22
		C39.68,418.64,40.68,419.63,41.9,419.63z"/>
	
		<ellipse transform="matrix(0.0157 -0.9999 0.9999 0.0157 -365.6313 463.407)" class="st93" cx="52.55" cy="417.41" rx="9.53" ry="9.53"/>
	<path class="st94" d="M253.18,428.61c6.18,0,11.19-5.01,11.19-11.19c0-6.18-5.01-11.19-11.19-11.19c-6.18,0-11.19,5.01-11.19,11.19
		C241.99,423.59,247,428.61,253.18,428.61z"/>
	<path class="st95" d="M100.94,429.83c6.86,0,12.41-5.56,12.41-12.41c0-6.86-5.56-12.41-12.41-12.41c-6.86,0-12.41,5.56-12.41,12.41
		C88.52,424.27,94.08,429.83,100.94,429.83z"/>
	<circle class="st96" cx="209.79" cy="417.41" r="13.63"/>
	<path class="st97" d="M381.11,432.15c8.14,0,14.74-6.6,14.74-14.74c0-8.14-6.6-14.74-14.74-14.74c-8.14,0-14.74,6.6-14.74,14.74
		C366.37,425.55,372.97,432.15,381.11,432.15z"/>
	<path class="st84" d="M299.92,433.15c8.69,0,15.74-7.05,15.74-15.74c0-8.69-7.05-15.74-15.74-15.74c-8.69,0-15.74,7.05-15.74,15.74
		C284.19,426.11,291.23,433.15,299.92,433.15z"/>
	<path class="st98" d="M415.61,435.15c9.79,0,17.73-7.94,17.73-17.73c0-9.79-7.94-17.73-17.73-17.73c-9.79,0-17.73,7.94-17.73,17.73
		C397.88,427.21,405.81,435.15,415.61,435.15z"/>
	<path class="st99" d="M377.71,435.48c9.98,0,18.07-8.09,18.07-18.07c0-9.98-8.09-18.07-18.07-18.07c-9.98,0-18.07,8.09-18.07,18.07
		C359.64,427.39,367.73,435.48,377.71,435.48z"/>
	<path class="st100" d="M148.23,465.36c4.41,0,7.98-3.57,7.98-7.98c0-4.41-3.57-7.98-7.98-7.98c-4.41,0-7.98,3.57-7.98,7.98
		C140.25,461.79,143.83,465.36,148.23,465.36z"/>
	<path class="st101" d="M127.1,466.91c5.26,0,9.53-4.27,9.53-9.53c0-5.26-4.27-9.53-9.53-9.53c-5.26,0-9.53,4.27-9.53,9.53
		C117.57,462.65,121.84,466.91,127.1,466.91z"/>
	<path class="st102" d="M164.22,468.57c6.18,0,11.19-5.01,11.19-11.19c0-6.18-5.01-11.19-11.19-11.19
		c-6.18,0-11.19,5.01-11.19,11.19C153.03,463.56,158.04,468.57,164.22,468.57z"/>
	
		<ellipse transform="matrix(0.9997 -0.025 0.025 0.9997 -11.3872 2.245)" class="st103" cx="84.26" cy="457.38" rx="12.41" ry="12.41"/>
	<path class="st104" d="M149.14,471.01c7.53,0,13.63-6.1,13.63-13.63c0-7.53-6.1-13.63-13.63-13.63c-7.53,0-13.63,6.1-13.63,13.63
		C135.51,464.91,141.61,471.01,149.14,471.01z"/>
	<path class="st105" d="M262.82,472.12c8.14,0,14.74-6.6,14.74-14.74c0-8.14-6.6-14.74-14.74-14.74c-8.14,0-14.74,6.6-14.74,14.74
		C248.08,465.52,254.68,472.12,262.82,472.12z"/>
	<path class="st106" d="M272.55,473.12c8.69,0,15.74-7.05,15.74-15.74c0-8.69-7.05-15.74-15.74-15.74
		c-8.69,0-15.74,7.05-15.74,15.74C256.81,466.07,263.86,473.12,272.55,473.12z"/>
	<path class="st63" d="M257.46,473.89c9.12,0,16.51-7.39,16.51-16.51c0-9.12-7.39-16.51-16.51-16.51c-9.12,0-16.51,7.39-16.51,16.51
		C240.95,466.5,248.34,473.89,257.46,473.89z"/>
	
		<ellipse transform="matrix(0.0277 -0.9996 0.9996 0.0277 -157.2711 753.0635)" class="st107" cx="308.49" cy="457.38" rx="17.18" ry="17.18"/>
	<path class="st9" d="M372.31,475.11c9.79,0,17.73-7.94,17.73-17.73c0-9.79-7.94-17.73-17.73-17.73c-9.79,0-17.73,7.94-17.73,17.73
		C354.58,467.17,362.52,475.11,372.31,475.11z"/>
	<path class="st108" d="M416.73,475.44c9.98,0,18.07-8.09,18.07-18.06c0-9.98-8.09-18.06-18.07-18.06
		c-9.98,0-18.06,8.09-18.06,18.06C398.66,467.36,406.75,475.44,416.73,475.44z"/>
</g>
</svg>
