<?xml version="1.0" encoding="utf-8"?>
<!-- Generator: Adobe Illustrator 26.3.1, SVG Export Plug-In . SVG Version: 6.00 Build 0)  -->
<svg version="1.1" id="Layer_1" xmlns="http://www.w3.org/2000/svg" xmlns:xlink="http://www.w3.org/1999/xlink" x="0px" y="0px"
	 viewBox="0 0 505.23 486.14" style="enable-background:new 0 0 505.23 486.14;" xml:space="preserve">
<style type="text/css">
	.st0{opacity:0.74;fill:#4D4D4F;}
	.st1{opacity:0.81;fill:#797A7D;}
	.st2{opacity:0.51;fill:#4D4D4F;}
	.st3{opacity:0.9;fill:#FFDF32;}
	.st4{opacity:0.57;fill:#A3A5A8;}
	.st5{opacity:0.2;fill:#A3A5A8;}
	.st6{opacity:0.7;fill:#4D4D4F;}
	.st7{opacity:0.39;fill:#797A7D;}
	.st8{opacity:0.17;fill:#545456;}
	.st9{opacity:0.36;fill:#FFDF32;}
	.st10{opacity:0.95;fill:#545456;}
	.st11{opacity:0.46;fill:#4D4D4F;}
	.st12{opacity:0.87;fill:#797A7D;}
	.st13{opacity:0.61;fill:#4D4D4F;}
	.st14{opacity:0.34;fill:#FFDF32;}
	.st15{opacity:0.48;fill:#A3A5A8;}
	.st16{opacity:0.87;fill:#4D4D4F;}
	.st17{opacity:0.74;fill:#C2C4C6;}
	.st18{opacity:0.96;fill:#A3A5A8;}
	.st19{opacity:0.55;fill:#FFDF00;}
	.st20{opacity:0.39;fill:#A3A5A8;}
	.st21{opacity:0.44;fill:#4D4D4F;}
	.st22{opacity:0.18;fill:#FFDF00;}
	.st23{opacity:0.58;fill:#4D4D4F;}
	.st24{opacity:0.59;fill:#FFDF00;}
	.st25{opacity:0.92;fill:#FFDF32;}
	.st26{opacity:0.82;fill:#FFDF00;}
	.st27{opacity:0.76;fill:#C2C4C6;}
	.st28{opacity:0.99;fill:#939598;}
	.st29{opacity:0.86;fill:#797A7D;}
	.st30{opacity:0.49;fill:#C2C4C6;}
	.st31{opacity:0.75;fill:#C2C4C6;}
	.st32{opacity:0.92;fill:#545456;}
	.st33{opacity:0.63;fill:#545456;}
	.st34{opacity:0.25;fill:#FFDF32;}
	.st35{opacity:0.52;fill:#4D4D4F;}
	.st36{opacity:0.74;fill:#FFDF32;}
	.st37{opacity:0.91;fill:#A3A5A8;}
	.st38{opacity:0.39;fill:#4D4D4F;}
	.st39{opacity:0.71;fill:#4D4D4F;}
	.st40{opacity:0.23;fill:#C2C4C6;}
	.st41{opacity:0.94;fill:#545456;}
	.st42{opacity:0.66;fill:#C2C4C6;}
	.st43{opacity:0.19;fill:#4D4D4F;}
	.st44{opacity:0.38;fill:#545456;}
	.st45{opacity:0.67;fill:#FFDF00;}
	.st46{opacity:0.47;fill:#FFDF00;}
	.st47{opacity:0.57;fill:#FFDF00;}
	.st48{opacity:0.34;fill:#C2C4C6;}
	.st49{opacity:0.67;fill:#FFDF32;}
	.st50{opacity:0.22;fill:#C2C4C6;}
	.st51{opacity:0.63;fill:#4D4D4F;}
	.st52{opacity:0.75;fill:#4D4D4F;}
	.st53{opacity:0.29;fill:#FFDF32;}
	.st54{opacity:0.4;fill:#A3A5A8;}
	.st55{opacity:0.43;fill:#545456;}
	.st56{opacity:0.1;fill:#FFDF00;}
	.st57{opacity:0.81;fill:#4D4D4F;}
	.st58{opacity:0.75;fill:#A3A5A8;}
	.st59{opacity:0.98;fill:#FFDF00;}
	.st60{opacity:0.12;fill:#FFDF00;}
	.st61{opacity:0.71;fill:#FFDF00;}
	.st62{opacity:0.52;fill:#FFDF32;}
	.st63{opacity:0.91;fill:#FFDF32;}
	.st64{opacity:0.91;fill:#545456;}
	.st65{opacity:0.66;fill:#4D4D4F;}
	.st66{opacity:0.5;fill:#939598;}
	.st67{opacity:0.12;fill:#4D4D4F;}
	.st68{opacity:0.8;fill:#939598;}
	.st69{opacity:0.46;fill:#A3A5A8;}
	.st70{opacity:0.95;fill:#FFDF00;}
	.st71{opacity:0.99;fill:#A3A5A8;}
	.st72{opacity:0.74;fill:#797A7D;}
	.st73{opacity:0.25;fill:#545456;}
	.st74{opacity:0.49;fill:#FFDF32;}
	.st75{opacity:0.65;fill:#939598;}
	.st76{opacity:0.59;fill:#797A7D;}
	.st77{opacity:0.2;fill:#FFDF32;}
	.st78{opacity:0.11;fill:#4D4D4F;}
	.st79{opacity:0.96;fill:#4D4D4F;}
	.st80{opacity:0.82;fill:#545456;}
	.st81{opacity:0.7;fill:#FFDF00;}
	.st82{opacity:0.31;fill:#4D4D4F;}
	.st83{opacity:0.81;fill:#939598;}
	.st84{opacity:0.45;fill:#FFDF00;}
	.st85{opacity:0.49;fill:#4D4D4F;}
	.st86{opacity:0.33;fill:#545456;}
	.st87{opacity:0.83;fill:#FFDF00;}
	.st88{opacity:0.75;fill:#FFDF32;}
	.st89{opacity:0.54;fill:#797A7D;}
	.st90{opacity:0.29;fill:#FFDF00;}
	.st91{opacity:0.14;fill:#FFDF32;}
	.st92{opacity:0.69;fill:#FFDF32;}
	.st93{opacity:0.72;fill:#545456;}
	.st94{opacity:0.52;fill:#FFDF00;}
	.st95{opacity:0.65;fill:#797A7D;}
	.st96{opacity:0.13;fill:#FFDF32;}
	.st97{opacity:0.18;fill:#4D4D4F;}
	.st98{opacity:0.54;fill:#FFDF00;}
	.st99{opacity:0.53;fill:#797A7D;}
	.st100{opacity:0.16;fill:#FFDF00;}
	.st101{opacity:0.79;fill:#545456;}
	.st102{opacity:0.68;fill:#A3A5A8;}
	.st103{opacity:0.24;fill:#939598;}
	.st104{opacity:0.88;fill:#FFDF32;}
	.st105{opacity:0.44;fill:#C2C4C6;}
	.st106{opacity:0.4;fill:#545456;}
	.st107{opacity:0.87;fill:#C2C4C6;}
	.st108{opacity:0.92;fill:#FFDF00;}
	.st109{fill:#A3A5A8;}
	.st110{fill:#797A7D;}
	.st111{fill:#FFDF32;}
	.st112{fill:#545456;}
	.st113{fill:#C2C4C6;}
	.st114{fill:#FFDF00;}
	.st115{opacity:0.14;fill:#4D4D4F;}
	.st116{opacity:0.8;fill:#4D4D4F;}
	.st117{opacity:0.57;fill:#939598;}
	.st118{opacity:0.54;fill:#C2C4C6;}
	.st119{opacity:0.48;fill:#4D4D4F;}
	.st120{opacity:0.8;fill:#C2C4C6;}
	.st121{opacity:0.6;fill:#C2C4C6;}
	.st122{opacity:0.26;fill:#A3A5A8;}
	.st123{opacity:0.22;fill:#939598;}
	.st124{opacity:0.98;fill:#797A7D;}
	.st125{opacity:0.45;fill:#A3A5A8;}
	.st126{opacity:0.95;fill:#A3A5A8;}
	.st127{opacity:0.24;fill:#FFDF00;}
	.st128{opacity:0.56;fill:#FFDF32;}
	.st129{opacity:0.92;fill:#797A7D;}
	.st130{opacity:0.43;fill:#4D4D4F;}
	.st131{opacity:0.85;fill:#4D4D4F;}
	.st132{opacity:0.42;fill:#C2C4C6;}
	.st133{opacity:0.81;fill:#FFDF00;}
	.st134{opacity:0.34;fill:#939598;}
	.st135{opacity:0.88;fill:#FFDF00;}
	.st136{opacity:0.3;fill:#545456;}
	.st137{opacity:0.21;fill:#4D4D4F;}
	.st138{opacity:0.46;fill:#797A7D;}
	.st139{opacity:0.2;fill:#797A7D;}
	.st140{opacity:0.38;fill:#C2C4C6;}
	.st141{opacity:0.85;fill:#A3A5A8;}
	.st142{opacity:0.2;fill:#C2C4C6;}
	.st143{opacity:0.35;fill:#4D4D4F;}
	.st144{opacity:0.89;fill:#FFDF00;}
	.st145{opacity:0.32;fill:#A3A5A8;}
	.st146{opacity:0.96;fill:#797A7D;}
	.st147{opacity:0.37;fill:#797A7D;}
	.st148{opacity:0.92;fill:#A3A5A8;}
	.st149{opacity:0.43;fill:#C2C4C6;}
	.st150{opacity:0.26;fill:#C2C4C6;}
	.st151{opacity:0.25;fill:#C2C4C6;}
	.st152{opacity:0.77;fill:#797A7D;}
	.st153{opacity:0.72;fill:#797A7D;}
	.st154{opacity:0.2;fill:#939598;}
	.st155{opacity:0.51;fill:#C2C4C6;}
	.st156{opacity:0.5;fill:#545456;}
	.st157{opacity:0.47;fill:#939598;}
</style>
<g>
	<path class="st109" d="M18.16,86.12c10.03,0,18.16-8.13,18.16-18.16c0-10.03-8.13-18.16-18.16-18.16C8.13,49.81,0,57.94,0,67.96
		C0,77.99,8.13,86.12,18.16,86.12z"/>
	<path class="st109" d="M58.33,85.9c9.91,0,17.94-8.03,17.94-17.93s-8.03-17.93-17.94-17.93c-9.9,0-17.93,8.03-17.93,17.93
		S48.42,85.9,58.33,85.9z"/>
	
		<ellipse transform="matrix(0.025 -0.9997 0.9997 0.025 28.0971 164.7376)" class="st109" cx="98.5" cy="67.96" rx="17.49" ry="17.49"/>
	<path class="st109" d="M138.67,84.79c9.29,0,16.82-7.53,16.82-16.82s-7.53-16.82-16.82-16.82c-9.29,0-16.82,7.53-16.82,16.82
		S129.38,84.79,138.67,84.79z"/>
	<path class="st109" d="M178.84,84.12c8.92,0,16.15-7.23,16.15-16.15c0-8.92-7.23-16.15-16.15-16.15c-8.92,0-16.15,7.23-16.15,16.15
		C162.69,76.89,169.92,84.12,178.84,84.12z"/>
	<path class="st110" d="M159.06,34.09c8.92,0,16.15-7.23,16.15-16.15c0-8.92-7.23-16.15-16.15-16.15c-8.92,0-16.15,7.23-16.15,16.15
		C142.91,26.86,150.14,34.09,159.06,34.09z"/>
	<path class="st109" d="M219.02,83.23c8.43,0,15.26-6.83,15.26-15.26s-6.83-15.26-15.26-15.26c-8.43,0-15.26,6.83-15.26,15.26
		S210.59,83.23,219.02,83.23z"/>
	<path class="st109" d="M259.19,82.11c7.81,0,14.15-6.33,14.15-14.15S267,53.82,259.19,53.82c-7.81,0-14.15,6.33-14.15,14.15
		S251.37,82.11,259.19,82.11z"/>
	<path class="st109" d="M299.36,80.89c7.14,0,12.92-5.79,12.92-12.92c0-7.14-5.78-12.92-12.92-12.92c-7.14,0-12.92,5.78-12.92,12.92
		C286.44,75.1,292.22,80.89,299.36,80.89z"/>
	<path class="st111" d="M38.24,136.15c10.03,0,18.16-8.13,18.16-18.16c0-10.03-8.13-18.16-18.16-18.16
		c-10.03,0-18.16,8.13-18.16,18.16C20.09,128.02,28.22,136.15,38.24,136.15z"/>
	<path class="st111" d="M78.42,135.93c9.91,0,17.93-8.03,17.93-17.93c0-9.91-8.03-17.93-17.93-17.93c-9.91,0-17.93,8.03-17.93,17.93
		C60.48,127.9,68.51,135.93,78.42,135.93z"/>
	<path class="st111" d="M118.59,135.48c9.66,0,17.49-7.83,17.49-17.49c0-9.66-7.83-17.49-17.49-17.49
		c-9.66,0-17.49,7.83-17.49,17.49C101.1,127.65,108.93,135.48,118.59,135.48z"/>
	<path class="st111" d="M158.76,134.81c9.29,0,16.82-7.53,16.82-16.82c0-9.29-7.53-16.82-16.82-16.82
		c-9.29,0-16.82,7.53-16.82,16.82C141.94,127.28,149.47,134.81,158.76,134.81z"/>
	<path class="st111" d="M198.93,134.15c8.92,0,16.15-7.23,16.15-16.15c0-8.92-7.23-16.15-16.15-16.15
		c-8.92,0-16.15,7.23-16.15,16.15C182.78,126.91,190.01,134.15,198.93,134.15z"/>
	
		<ellipse transform="matrix(0.9732 -0.2298 0.2298 0.9732 -20.7134 58.091)" class="st111" cx="239.1" cy="117.99" rx="15.26" ry="15.26"/>
	<path class="st111" d="M279.27,132.14c7.81,0,14.15-6.33,14.15-14.15c0-7.81-6.33-14.15-14.15-14.15
		c-7.81,0-14.15,6.33-14.15,14.15C265.13,125.81,271.46,132.14,279.27,132.14z"/>
	<path class="st111" d="M319.45,130.92c7.14,0,12.92-5.78,12.92-12.92c0-7.14-5.79-12.92-12.92-12.92
		c-7.14,0-12.92,5.79-12.92,12.92C306.53,125.13,312.31,130.92,319.45,130.92z"/>
	<path class="st111" d="M359.62,129.69c6.46,0,11.7-5.24,11.7-11.7c0-6.46-5.24-11.7-11.7-11.7c-6.46,0-11.7,5.24-11.7,11.7
		C347.92,124.45,353.16,129.69,359.62,129.69z"/>
	<path class="st111" d="M399.79,128.24c5.66,0,10.25-4.59,10.25-10.25c0-5.66-4.59-10.25-10.25-10.25
		c-5.66,0-10.25,4.59-10.25,10.25C389.54,123.65,394.13,128.24,399.79,128.24z"/>
	<path class="st110" d="M39.88,35.87c9.91,0,17.94-8.03,17.94-17.93C57.81,8.03,49.78,0,39.88,0c-9.9,0-17.93,8.03-17.93,17.93
		C21.95,27.84,29.97,35.87,39.88,35.87z"/>
	
		<ellipse transform="matrix(0.0132 -0.9999 0.9999 0.0132 61.0655 97.7439)" class="st110" cx="80.05" cy="17.93" rx="17.49" ry="17.49"/>
	<path class="st110" d="M120.22,34.76c9.29,0,16.82-7.53,16.82-16.82c0-9.29-7.53-16.82-16.82-16.82c-9.29,0-16.82,7.53-16.82,16.82
		C103.4,27.22,110.93,34.76,120.22,34.76z"/>
	<path class="st112" d="M39.88,486.14c9.91,0,17.94-8.03,17.94-17.93c0-9.91-8.03-17.93-17.94-17.93c-9.9,0-17.93,8.03-17.93,17.93
		C21.95,478.11,29.97,486.14,39.88,486.14z"/>
	
		<ellipse transform="matrix(0.0132 -0.9999 0.9999 0.0132 -389.1626 542.088)" class="st112" cx="80.05" cy="468.2" rx="17.49" ry="17.49"/>
	<path class="st112" d="M120.22,485.02c9.29,0,16.82-7.53,16.82-16.82c0-9.29-7.53-16.82-16.82-16.82
		c-9.29,0-16.82,7.53-16.82,16.82C103.4,477.49,110.93,485.02,120.22,485.02z"/>
	<path class="st112" d="M160.4,484.35c8.92,0,16.15-7.23,16.15-16.15c0-8.92-7.23-16.15-16.15-16.15c-8.92,0-16.15,7.23-16.15,16.15
		C144.24,477.12,151.47,484.35,160.4,484.35z"/>
	<path class="st112" d="M200.57,483.46c8.43,0,15.26-6.83,15.26-15.26s-6.83-15.26-15.26-15.26c-8.43,0-15.26,6.83-15.26,15.26
		S192.14,483.46,200.57,483.46z"/>
	<path class="st110" d="M38.24,186.18c10.03,0,18.16-8.13,18.16-18.16c0-10.03-8.13-18.16-18.16-18.16
		c-10.03,0-18.16,8.13-18.16,18.16C20.09,178.05,28.22,186.18,38.24,186.18z"/>
	<path class="st110" d="M78.42,185.96c9.91,0,17.93-8.03,17.93-17.93c0-9.91-8.03-17.93-17.93-17.93c-9.91,0-17.93,8.03-17.93,17.93
		C60.48,177.93,68.51,185.96,78.42,185.96z"/>
	<path class="st110" d="M118.59,185.51c9.66,0,17.49-7.83,17.49-17.49c0-9.66-7.83-17.49-17.49-17.49
		c-9.66,0-17.49,7.83-17.49,17.49C101.1,177.68,108.93,185.51,118.59,185.51z"/>
	<path class="st110" d="M158.76,184.84c9.29,0,16.82-7.53,16.82-16.82c0-9.29-7.53-16.82-16.82-16.82
		c-9.29,0-16.82,7.53-16.82,16.82C141.94,177.31,149.47,184.84,158.76,184.84z"/>
	<path class="st110" d="M198.93,184.18c8.92,0,16.15-7.23,16.15-16.15c0-8.92-7.23-16.15-16.15-16.15
		c-8.92,0-16.15,7.23-16.15,16.15C182.78,176.94,190.01,184.18,198.93,184.18z"/>
	<path class="st110" d="M239.1,183.28c8.43,0,15.26-6.83,15.26-15.26c0-8.43-6.83-15.26-15.26-15.26c-8.43,0-15.26,6.83-15.26,15.26
		C223.84,176.45,230.67,183.28,239.1,183.28z"/>
	<path class="st110" d="M279.27,182.17c7.81,0,14.15-6.33,14.15-14.15c0-7.81-6.33-14.15-14.15-14.15
		c-7.81,0-14.15,6.33-14.15,14.15C265.13,175.84,271.46,182.17,279.27,182.17z"/>
	
		<ellipse transform="matrix(0.0277 -0.9996 0.9996 0.0277 142.6236 482.6855)" class="st110" cx="319.45" cy="168.02" rx="12.92" ry="12.92"/>
	<path class="st110" d="M359.62,179.72c6.46,0,11.7-5.24,11.7-11.7c0-6.46-5.24-11.7-11.7-11.7c-6.46,0-11.7,5.24-11.7,11.7
		C347.92,174.48,353.16,179.72,359.62,179.72z"/>
	<path class="st110" d="M399.79,178.27c5.66,0,10.25-4.59,10.25-10.25c0-5.66-4.59-10.25-10.25-10.25
		c-5.66,0-10.25,4.59-10.25,10.25C389.54,173.68,394.13,178.27,399.79,178.27z"/>
	<path class="st110" d="M439.96,176.6c4.74,0,8.58-3.84,8.58-8.58c0-4.74-3.84-8.58-8.58-8.58c-4.74,0-8.58,3.84-8.58,8.58
		C431.38,172.76,435.22,176.6,439.96,176.6z"/>
	<path class="st110" d="M480.13,174.93c3.81,0,6.91-3.09,6.91-6.91c0-3.81-3.09-6.91-6.91-6.91c-3.82,0-6.91,3.09-6.91,6.91
		C473.23,171.84,476.32,174.93,480.13,174.93z"/>
	<path class="st113" d="M18.16,236.21c10.03,0,18.16-8.13,18.16-18.16c0-10.03-8.13-18.16-18.16-18.16C8.13,199.9,0,208.03,0,218.05
		C0,228.08,8.13,236.21,18.16,236.21z"/>
	<path class="st113" d="M58.33,235.99c9.91,0,17.94-8.03,17.94-17.93c0-9.9-8.03-17.93-17.94-17.93c-9.9,0-17.93,8.03-17.93,17.93
		C40.4,227.96,48.42,235.99,58.33,235.99z"/>
	
		<ellipse transform="matrix(0.025 -0.9997 0.9997 0.025 -121.9447 311.0776)" class="st113" cx="98.5" cy="218.05" rx="17.49" ry="17.49"/>
	<path class="st113" d="M138.67,234.87c9.29,0,16.82-7.53,16.82-16.82s-7.53-16.82-16.82-16.82c-9.29,0-16.82,7.53-16.82,16.82
		S129.38,234.87,138.67,234.87z"/>
	<path class="st113" d="M178.84,234.21c8.92,0,16.15-7.23,16.15-16.15c0-8.92-7.23-16.15-16.15-16.15
		c-8.92,0-16.15,7.23-16.15,16.15C162.69,226.97,169.92,234.21,178.84,234.21z"/>
	<path class="st113" d="M219.02,233.31c8.43,0,15.26-6.83,15.26-15.26c0-8.43-6.83-15.26-15.26-15.26
		c-8.43,0-15.26,6.83-15.26,15.26C203.76,226.48,210.59,233.31,219.02,233.31z"/>
	<path class="st113" d="M259.19,232.2c7.81,0,14.15-6.33,14.15-14.15c0-7.81-6.33-14.15-14.15-14.15c-7.81,0-14.15,6.33-14.15,14.15
		C245.04,225.87,251.37,232.2,259.19,232.2z"/>
	<path class="st113" d="M299.36,230.98c7.14,0,12.92-5.79,12.92-12.92c0-7.14-5.78-12.92-12.92-12.92
		c-7.14,0-12.92,5.78-12.92,12.92C286.44,225.19,292.22,230.98,299.36,230.98z"/>
	<path class="st113" d="M339.53,229.75c6.46,0,11.7-5.24,11.7-11.7c0-6.46-5.24-11.7-11.7-11.7c-6.46,0-11.7,5.24-11.7,11.7
		C327.83,224.51,333.07,229.75,339.53,229.75z"/>
	
		<ellipse transform="matrix(0.9871 -0.1602 0.1602 0.9871 -30.0253 63.6374)" class="st113" cx="379.7" cy="218.05" rx="10.25" ry="10.25"/>
	<path class="st113" d="M419.88,226.63c4.74,0,8.58-3.84,8.58-8.58c0-4.74-3.84-8.58-8.58-8.58c-4.74,0-8.58,3.84-8.58,8.58
		C411.3,222.79,415.14,226.63,419.88,226.63z"/>
	<path class="st113" d="M460.05,224.96c3.81,0,6.91-3.09,6.91-6.91c0-3.81-3.09-6.91-6.91-6.91c-3.81,0-6.91,3.09-6.91,6.91
		C453.14,221.87,456.23,224.96,460.05,224.96z"/>
	<path class="st9" d="M18.16,286.24c10.03,0,18.16-8.13,18.16-18.16c0-10.03-8.13-18.16-18.16-18.16C8.13,249.93,0,258.06,0,268.08
		C0,278.11,8.13,286.24,18.16,286.24z"/>
	<path class="st9" d="M58.33,286.02c9.91,0,17.94-8.03,17.94-17.94c0-9.9-8.03-17.94-17.94-17.94c-9.9,0-17.93,8.03-17.93,17.94
		C40.4,277.99,48.42,286.02,58.33,286.02z"/>
	<path class="st9" d="M98.5,285.57c9.66,0,17.49-7.83,17.49-17.49c0-9.66-7.83-17.49-17.49-17.49c-9.66,0-17.49,7.83-17.49,17.49
		C81.01,277.74,88.84,285.57,98.5,285.57z"/>
	<path class="st9" d="M138.67,284.9c9.29,0,16.82-7.53,16.82-16.82c0-9.29-7.53-16.82-16.82-16.82c-9.29,0-16.82,7.53-16.82,16.82
		C121.85,277.37,129.38,284.9,138.67,284.9z"/>
	<path class="st9" d="M178.84,284.24c8.92,0,16.15-7.23,16.15-16.15c0-8.92-7.23-16.15-16.15-16.15c-8.92,0-16.15,7.23-16.15,16.15
		C162.69,277,169.92,284.24,178.84,284.24z"/>
	<path class="st9" d="M219.02,283.34c8.43,0,15.26-6.83,15.26-15.26c0-8.43-6.83-15.26-15.26-15.26c-8.43,0-15.26,6.83-15.26,15.26
		C203.76,276.51,210.59,283.34,219.02,283.34z"/>
	<path class="st9" d="M259.19,282.23c7.81,0,14.15-6.33,14.15-14.15c0-7.81-6.33-14.15-14.15-14.15c-7.81,0-14.15,6.33-14.15,14.15
		C245.04,275.9,251.37,282.23,259.19,282.23z"/>
	<path class="st9" d="M299.36,281c7.14,0,12.92-5.78,12.92-12.92c0-7.14-5.78-12.92-12.92-12.92c-7.14,0-12.92,5.79-12.92,12.92
		C286.44,275.22,292.22,281,299.36,281z"/>
	<path class="st9" d="M339.53,279.78c6.46,0,11.7-5.24,11.7-11.7c0-6.46-5.24-11.7-11.7-11.7c-6.46,0-11.7,5.24-11.7,11.7
		C327.83,274.54,333.07,279.78,339.53,279.78z"/>
	<path class="st9" d="M379.7,278.33c5.66,0,10.25-4.59,10.25-10.25c0-5.66-4.59-10.25-10.25-10.25c-5.66,0-10.25,4.59-10.25,10.25
		C369.46,273.74,374.04,278.33,379.7,278.33z"/>
	<path class="st9" d="M419.88,276.66c4.74,0,8.58-3.84,8.58-8.58c0-4.74-3.84-8.58-8.58-8.58c-4.74,0-8.58,3.84-8.58,8.58
		C411.3,272.82,415.14,276.66,419.88,276.66z"/>
	<path class="st9" d="M460.05,274.99c3.81,0,6.91-3.09,6.91-6.91c0-3.81-3.09-6.91-6.91-6.91c-3.81,0-6.91,3.09-6.91,6.91
		C453.14,271.9,456.23,274.99,460.05,274.99z"/>
	<path class="st9" d="M500.22,273.1c2.77,0,5.01-2.24,5.01-5.01c0-2.77-2.24-5.01-5.01-5.01c-2.77,0-5.01,2.24-5.01,5.01
		C495.21,270.85,497.45,273.1,500.22,273.1z"/>
	<path class="st114" d="M38.24,336.27c10.03,0,18.16-8.13,18.16-18.16c0-10.03-8.13-18.16-18.16-18.16
		c-10.03,0-18.16,8.13-18.16,18.16C20.09,328.14,28.22,336.27,38.24,336.27z"/>
	<path class="st114" d="M78.42,336.05c9.91,0,17.93-8.03,17.93-17.93c0-9.9-8.03-17.93-17.93-17.93c-9.91,0-17.93,8.03-17.93,17.93
		C60.48,328.02,68.51,336.05,78.42,336.05z"/>
	<path class="st114" d="M118.59,335.6c9.66,0,17.49-7.83,17.49-17.49c0-9.66-7.83-17.49-17.49-17.49c-9.66,0-17.49,7.83-17.49,17.49
		C101.1,327.77,108.93,335.6,118.59,335.6z"/>
	<path class="st114" d="M158.76,334.93c9.29,0,16.82-7.53,16.82-16.82c0-9.29-7.53-16.82-16.82-16.82
		c-9.29,0-16.82,7.53-16.82,16.82C141.94,327.4,149.47,334.93,158.76,334.93z"/>
	<path class="st114" d="M198.93,334.27c8.92,0,16.15-7.23,16.15-16.15c0-8.92-7.23-16.15-16.15-16.15
		c-8.92,0-16.15,7.23-16.15,16.15C182.78,327.03,190.01,334.27,198.93,334.27z"/>
	<path class="st114" d="M239.1,333.37c8.43,0,15.26-6.83,15.26-15.26c0-8.43-6.83-15.26-15.26-15.26c-8.43,0-15.26,6.83-15.26,15.26
		C223.84,326.54,230.67,333.37,239.1,333.37z"/>
	<path class="st114" d="M279.27,332.26c7.81,0,14.15-6.33,14.15-14.15c0-7.81-6.33-14.15-14.15-14.15
		c-7.81,0-14.15,6.33-14.15,14.15C265.13,325.93,271.46,332.26,279.27,332.26z"/>
	
		<ellipse transform="matrix(0.0132 -0.9999 0.9999 0.0132 -2.8414 633.347)" class="st114" cx="319.45" cy="318.11" rx="12.92" ry="12.92"/>
	<path class="st114" d="M359.62,329.81c6.46,0,11.7-5.24,11.7-11.7c0-6.46-5.24-11.7-11.7-11.7c-6.46,0-11.7,5.24-11.7,11.7
		C347.92,324.57,353.16,329.81,359.62,329.81z"/>
	<path class="st114" d="M399.79,328.36c5.66,0,10.25-4.59,10.25-10.25c0-5.66-4.59-10.25-10.25-10.25
		c-5.66,0-10.25,4.59-10.25,10.25C389.54,323.77,394.13,328.36,399.79,328.36z"/>
	<path class="st114" d="M439.96,326.69c4.74,0,8.58-3.84,8.58-8.58c0-4.74-3.84-8.58-8.58-8.58c-4.74,0-8.58,3.84-8.58,8.58
		C431.38,322.85,435.22,326.69,439.96,326.69z"/>
	<path class="st114" d="M480.13,325.02c3.81,0,6.91-3.09,6.91-6.91c0-3.81-3.09-6.91-6.91-6.91c-3.82,0-6.91,3.09-6.91,6.91
		C473.23,321.93,476.32,325.02,480.13,325.02z"/>
	<path class="st109" d="M38.24,386.3c10.03,0,18.16-8.13,18.16-18.16c0-10.03-8.13-18.16-18.16-18.16
		c-10.03,0-18.16,8.13-18.16,18.16C20.09,378.17,28.22,386.3,38.24,386.3z"/>
	<path class="st109" d="M78.42,386.08c9.91,0,17.93-8.03,17.93-17.93c0-9.91-8.03-17.93-17.93-17.93c-9.91,0-17.93,8.03-17.93,17.93
		C60.48,378.05,68.51,386.08,78.42,386.08z"/>
	<path class="st109" d="M118.59,385.63c9.66,0,17.49-7.83,17.49-17.49c0-9.66-7.83-17.49-17.49-17.49
		c-9.66,0-17.49,7.83-17.49,17.49C101.1,377.8,108.93,385.63,118.59,385.63z"/>
	<path class="st109" d="M158.76,384.96c9.29,0,16.82-7.53,16.82-16.82c0-9.29-7.53-16.82-16.82-16.82
		c-9.29,0-16.82,7.53-16.82,16.82C141.94,377.43,149.47,384.96,158.76,384.96z"/>
	<path class="st109" d="M198.93,384.29c8.92,0,16.15-7.23,16.15-16.15c0-8.92-7.23-16.15-16.15-16.15
		c-8.92,0-16.15,7.23-16.15,16.15C182.78,377.06,190.01,384.29,198.93,384.29z"/>
	<path class="st109" d="M239.1,383.4c8.43,0,15.26-6.83,15.26-15.26c0-8.43-6.83-15.26-15.26-15.26c-8.43,0-15.26,6.83-15.26,15.26
		C223.84,376.57,230.67,383.4,239.1,383.4z"/>
	<path class="st109" d="M279.27,382.29c7.81,0,14.15-6.33,14.15-14.15c0-7.81-6.33-14.15-14.15-14.15
		c-7.81,0-14.15,6.33-14.15,14.15C265.13,375.96,271.46,382.29,279.27,382.29z"/>
	<path class="st109" d="M319.45,381.06c7.14,0,12.92-5.79,12.92-12.92c0-7.14-5.79-12.92-12.92-12.92
		c-7.14,0-12.92,5.79-12.92,12.92C306.53,375.28,312.31,381.06,319.45,381.06z"/>
	<path class="st109" d="M359.62,379.84c6.46,0,11.7-5.24,11.7-11.7c0-6.46-5.24-11.7-11.7-11.7c-6.46,0-11.7,5.24-11.7,11.7
		C347.92,374.6,353.16,379.84,359.62,379.84z"/>
	<path class="st109" d="M399.79,378.39c5.66,0,10.25-4.59,10.25-10.25c0-5.66-4.59-10.25-10.25-10.25
		c-5.66,0-10.25,4.59-10.25,10.25C389.54,373.8,394.13,378.39,399.79,378.39z"/>
	<path class="st109" d="M439.96,376.72c4.74,0,8.58-3.84,8.58-8.58c0-4.74-3.84-8.58-8.58-8.58c-4.74,0-8.58,3.84-8.58,8.58
		C431.38,372.88,435.22,376.72,439.96,376.72z"/>
	<path class="st9" d="M18.16,436.33c10.03,0,18.16-8.13,18.16-18.16c0-10.03-8.13-18.16-18.16-18.16C8.13,400.02,0,408.15,0,418.17
		C0,428.2,8.13,436.33,18.16,436.33z"/>
	<path class="st9" d="M58.33,436.11c9.91,0,17.94-8.03,17.94-17.93c0-9.91-8.03-17.94-17.94-17.94c-9.9,0-17.93,8.03-17.93,17.94
		C40.4,428.08,48.42,436.11,58.33,436.11z"/>
	<path class="st9" d="M98.5,435.66c9.66,0,17.49-7.83,17.49-17.49c0-9.66-7.83-17.49-17.49-17.49c-9.66,0-17.49,7.83-17.49,17.49
		C81.01,427.83,88.84,435.66,98.5,435.66z"/>
	<path class="st9" d="M138.67,434.99c9.29,0,16.82-7.53,16.82-16.82c0-9.29-7.53-16.82-16.82-16.82c-9.29,0-16.82,7.53-16.82,16.82
		C121.85,427.46,129.38,434.99,138.67,434.99z"/>
	<path class="st9" d="M178.84,434.32c8.92,0,16.15-7.23,16.15-16.15c0-8.92-7.23-16.15-16.15-16.15c-8.92,0-16.15,7.23-16.15,16.15
		C162.69,427.09,169.92,434.32,178.84,434.32z"/>
	<path class="st9" d="M219.02,433.43c8.43,0,15.26-6.83,15.26-15.26c0-8.43-6.83-15.26-15.26-15.26c-8.43,0-15.26,6.83-15.26,15.26
		C203.76,426.6,210.59,433.43,219.02,433.43z"/>
	<path class="st9" d="M259.19,432.32c7.81,0,14.15-6.33,14.15-14.15c0-7.81-6.33-14.15-14.15-14.15c-7.81,0-14.15,6.33-14.15,14.15
		C245.04,425.99,251.37,432.32,259.19,432.32z"/>
	<path class="st9" d="M299.36,431.09c7.14,0,12.92-5.78,12.92-12.92c0-7.14-5.78-12.92-12.92-12.92c-7.14,0-12.92,5.79-12.92,12.92
		C286.44,425.31,292.22,431.09,299.36,431.09z"/>
	<path class="st9" d="M339.53,429.87c6.46,0,11.7-5.24,11.7-11.7c0-6.46-5.24-11.7-11.7-11.7c-6.46,0-11.7,5.24-11.7,11.7
		C327.83,424.63,333.07,429.87,339.53,429.87z"/>
	<path class="st9" d="M379.7,428.42c5.66,0,10.25-4.59,10.25-10.25c0-5.66-4.59-10.25-10.25-10.25c-5.66,0-10.25,4.59-10.25,10.25
		C369.46,423.83,374.04,428.42,379.7,428.42z"/>
	<path class="st9" d="M419.88,426.75c4.74,0,8.58-3.84,8.58-8.58c0-4.74-3.84-8.58-8.58-8.58c-4.74,0-8.58,3.84-8.58,8.58
		C411.3,422.91,415.14,426.75,419.88,426.75z"/>
</g>
</svg>
