<?xml version="1.0" encoding="utf-8"?>
<!-- Generator: Adobe Illustrator 26.3.1, SVG Export Plug-In . SVG Version: 6.00 Build 0)  -->
<svg version="1.1" id="Layer_1" xmlns="http://www.w3.org/2000/svg" xmlns:xlink="http://www.w3.org/1999/xlink" x="0px" y="0px"
	 viewBox="0 0 371.26 475.41" style="enable-background:new 0 0 371.26 475.41;" xml:space="preserve">
<style type="text/css">
	.st0{opacity:0.74;fill:#4D4D4F;}
	.st1{opacity:0.81;fill:#797A7D;}
	.st2{opacity:0.51;fill:#4D4D4F;}
	.st3{opacity:0.9;fill:#FFDF32;}
	.st4{opacity:0.57;fill:#A3A5A8;}
	.st5{opacity:0.2;fill:#A3A5A8;}
	.st6{opacity:0.7;fill:#4D4D4F;}
	.st7{opacity:0.39;fill:#797A7D;}
	.st8{opacity:0.17;fill:#545456;}
	.st9{opacity:0.36;fill:#FFDF32;}
	.st10{opacity:0.95;fill:#545456;}
	.st11{opacity:0.46;fill:#4D4D4F;}
	.st12{opacity:0.87;fill:#797A7D;}
	.st13{opacity:0.61;fill:#4D4D4F;}
	.st14{opacity:0.34;fill:#FFDF32;}
	.st15{opacity:0.48;fill:#A3A5A8;}
	.st16{opacity:0.87;fill:#4D4D4F;}
	.st17{opacity:0.74;fill:#C2C4C6;}
	.st18{opacity:0.96;fill:#A3A5A8;}
	.st19{opacity:0.55;fill:#FFDF00;}
	.st20{opacity:0.39;fill:#A3A5A8;}
	.st21{opacity:0.44;fill:#4D4D4F;}
	.st22{opacity:0.18;fill:#FFDF00;}
	.st23{opacity:0.58;fill:#4D4D4F;}
	.st24{opacity:0.59;fill:#FFDF00;}
	.st25{opacity:0.92;fill:#FFDF32;}
	.st26{opacity:0.82;fill:#FFDF00;}
	.st27{opacity:0.76;fill:#C2C4C6;}
	.st28{opacity:0.99;fill:#939598;}
	.st29{opacity:0.86;fill:#797A7D;}
	.st30{opacity:0.49;fill:#C2C4C6;}
	.st31{opacity:0.75;fill:#C2C4C6;}
	.st32{opacity:0.92;fill:#545456;}
	.st33{opacity:0.63;fill:#545456;}
	.st34{opacity:0.25;fill:#FFDF32;}
	.st35{opacity:0.52;fill:#4D4D4F;}
	.st36{opacity:0.74;fill:#FFDF32;}
	.st37{opacity:0.91;fill:#A3A5A8;}
	.st38{opacity:0.39;fill:#4D4D4F;}
	.st39{opacity:0.71;fill:#4D4D4F;}
	.st40{opacity:0.23;fill:#C2C4C6;}
	.st41{opacity:0.94;fill:#545456;}
	.st42{opacity:0.66;fill:#C2C4C6;}
	.st43{opacity:0.19;fill:#4D4D4F;}
	.st44{opacity:0.38;fill:#545456;}
	.st45{opacity:0.67;fill:#FFDF00;}
	.st46{opacity:0.47;fill:#FFDF00;}
	.st47{opacity:0.57;fill:#FFDF00;}
	.st48{opacity:0.34;fill:#C2C4C6;}
	.st49{opacity:0.67;fill:#FFDF32;}
	.st50{opacity:0.22;fill:#C2C4C6;}
	.st51{opacity:0.63;fill:#4D4D4F;}
	.st52{opacity:0.75;fill:#4D4D4F;}
	.st53{opacity:0.29;fill:#FFDF32;}
	.st54{opacity:0.4;fill:#A3A5A8;}
	.st55{opacity:0.43;fill:#545456;}
	.st56{opacity:0.1;fill:#FFDF00;}
	.st57{opacity:0.81;fill:#4D4D4F;}
	.st58{opacity:0.75;fill:#A3A5A8;}
	.st59{opacity:0.98;fill:#FFDF00;}
	.st60{opacity:0.12;fill:#FFDF00;}
	.st61{opacity:0.71;fill:#FFDF00;}
	.st62{opacity:0.52;fill:#FFDF32;}
	.st63{opacity:0.91;fill:#FFDF32;}
	.st64{opacity:0.91;fill:#545456;}
	.st65{opacity:0.66;fill:#4D4D4F;}
	.st66{opacity:0.5;fill:#939598;}
	.st67{opacity:0.12;fill:#4D4D4F;}
	.st68{opacity:0.8;fill:#939598;}
	.st69{opacity:0.46;fill:#A3A5A8;}
	.st70{opacity:0.95;fill:#FFDF00;}
	.st71{opacity:0.99;fill:#A3A5A8;}
	.st72{opacity:0.74;fill:#797A7D;}
	.st73{opacity:0.25;fill:#545456;}
	.st74{opacity:0.49;fill:#FFDF32;}
	.st75{opacity:0.65;fill:#939598;}
	.st76{opacity:0.59;fill:#797A7D;}
	.st77{opacity:0.2;fill:#FFDF32;}
	.st78{opacity:0.11;fill:#4D4D4F;}
	.st79{opacity:0.96;fill:#4D4D4F;}
	.st80{opacity:0.82;fill:#545456;}
	.st81{opacity:0.7;fill:#FFDF00;}
	.st82{opacity:0.31;fill:#4D4D4F;}
	.st83{opacity:0.81;fill:#939598;}
	.st84{opacity:0.45;fill:#FFDF00;}
	.st85{opacity:0.49;fill:#4D4D4F;}
	.st86{opacity:0.33;fill:#545456;}
	.st87{opacity:0.83;fill:#FFDF00;}
	.st88{opacity:0.75;fill:#FFDF32;}
	.st89{opacity:0.54;fill:#797A7D;}
	.st90{opacity:0.29;fill:#FFDF00;}
	.st91{opacity:0.14;fill:#FFDF32;}
	.st92{opacity:0.69;fill:#FFDF32;}
	.st93{opacity:0.72;fill:#545456;}
	.st94{opacity:0.52;fill:#FFDF00;}
	.st95{opacity:0.65;fill:#797A7D;}
	.st96{opacity:0.13;fill:#FFDF32;}
	.st97{opacity:0.18;fill:#4D4D4F;}
	.st98{opacity:0.54;fill:#FFDF00;}
	.st99{opacity:0.53;fill:#797A7D;}
	.st100{opacity:0.16;fill:#FFDF00;}
	.st101{opacity:0.79;fill:#545456;}
	.st102{opacity:0.68;fill:#A3A5A8;}
	.st103{opacity:0.24;fill:#939598;}
	.st104{opacity:0.88;fill:#FFDF32;}
	.st105{opacity:0.44;fill:#C2C4C6;}
	.st106{opacity:0.4;fill:#545456;}
	.st107{opacity:0.87;fill:#C2C4C6;}
	.st108{opacity:0.92;fill:#FFDF00;}
	.st109{fill:#A3A5A8;}
	.st110{fill:#797A7D;}
	.st111{fill:#FFDF32;}
	.st112{fill:#545456;}
	.st113{fill:#C2C4C6;}
	.st114{fill:#FFDF00;}
	.st115{opacity:0.14;fill:#4D4D4F;}
	.st116{opacity:0.8;fill:#4D4D4F;}
	.st117{opacity:0.57;fill:#939598;}
	.st118{opacity:0.54;fill:#C2C4C6;}
	.st119{opacity:0.48;fill:#4D4D4F;}
	.st120{opacity:0.8;fill:#C2C4C6;}
	.st121{opacity:0.6;fill:#C2C4C6;}
	.st122{opacity:0.26;fill:#A3A5A8;}
	.st123{opacity:0.22;fill:#939598;}
	.st124{opacity:0.98;fill:#797A7D;}
	.st125{opacity:0.45;fill:#A3A5A8;}
	.st126{opacity:0.95;fill:#A3A5A8;}
	.st127{opacity:0.24;fill:#FFDF00;}
	.st128{opacity:0.56;fill:#FFDF32;}
	.st129{opacity:0.92;fill:#797A7D;}
	.st130{opacity:0.43;fill:#4D4D4F;}
	.st131{opacity:0.85;fill:#4D4D4F;}
	.st132{opacity:0.42;fill:#C2C4C6;}
	.st133{opacity:0.81;fill:#FFDF00;}
	.st134{opacity:0.34;fill:#939598;}
	.st135{opacity:0.88;fill:#FFDF00;}
	.st136{opacity:0.3;fill:#545456;}
	.st137{opacity:0.21;fill:#4D4D4F;}
	.st138{opacity:0.46;fill:#797A7D;}
	.st139{opacity:0.2;fill:#797A7D;}
	.st140{opacity:0.38;fill:#C2C4C6;}
	.st141{opacity:0.85;fill:#A3A5A8;}
	.st142{opacity:0.2;fill:#C2C4C6;}
	.st143{opacity:0.35;fill:#4D4D4F;}
	.st144{opacity:0.89;fill:#FFDF00;}
	.st145{opacity:0.32;fill:#A3A5A8;}
	.st146{opacity:0.96;fill:#797A7D;}
	.st147{opacity:0.37;fill:#797A7D;}
	.st148{opacity:0.92;fill:#A3A5A8;}
	.st149{opacity:0.43;fill:#C2C4C6;}
	.st150{opacity:0.26;fill:#C2C4C6;}
	.st151{opacity:0.25;fill:#C2C4C6;}
	.st152{opacity:0.77;fill:#797A7D;}
	.st153{opacity:0.72;fill:#797A7D;}
	.st154{opacity:0.2;fill:#939598;}
	.st155{opacity:0.51;fill:#C2C4C6;}
	.st156{opacity:0.5;fill:#545456;}
	.st157{opacity:0.47;fill:#939598;}
</style>
<g>
	<path class="st115" d="M231.71,23.34c6.45,0,11.67-5.23,11.67-11.67c0-6.45-5.23-11.67-11.67-11.67c-6.45,0-11.67,5.23-11.67,11.67
		C220.04,18.12,225.26,23.34,231.71,23.34z"/>
	<path class="st116" d="M272.85,22.27c5.85,0,10.6-4.75,10.6-10.6c0-5.85-4.75-10.6-10.6-10.6c-5.85,0-10.6,4.75-10.6,10.6
		C262.25,17.53,267,22.27,272.85,22.27z"/>
	<path class="st117" d="M314,13.51c1.02,0,1.84-0.82,1.84-1.84c0-1.01-0.82-1.84-1.84-1.84c-1.02,0-1.84,0.82-1.84,1.84
		C312.16,12.69,312.98,13.51,314,13.51z"/>
	<path class="st9" d="M355.14,22.42c5.94,0,10.75-4.81,10.75-10.75c0-5.94-4.81-10.75-10.75-10.75c-5.93,0-10.75,4.81-10.75,10.75
		C344.4,17.61,349.21,22.42,355.14,22.42z"/>
	<path class="st118" d="M211.14,64.79c6.61,0,11.98-5.36,11.98-11.97c0-6.61-5.36-11.98-11.98-11.98c-6.61,0-11.97,5.36-11.97,11.98
		C199.16,59.43,204.52,64.79,211.14,64.79z"/>
	<path class="st119" d="M252.28,69.95c9.46,0,17.13-7.67,17.13-17.13c0-9.46-7.67-17.13-17.13-17.13c-9.46,0-17.13,7.67-17.13,17.13
		C235.15,62.28,242.82,69.95,252.28,69.95z"/>
	<path class="st120" d="M293.43,62.86c5.55,0,10.04-4.5,10.04-10.04c0-5.55-4.5-10.04-10.04-10.04c-5.55,0-10.04,4.5-10.04,10.04
		C283.38,58.36,287.88,62.86,293.43,62.86z"/>
	<path class="st121" d="M334.57,61.63c4.87,0,8.82-3.95,8.82-8.82c0-4.87-3.95-8.82-8.82-8.82c-4.87,0-8.82,3.95-8.82,8.82
		C325.75,57.68,329.7,61.63,334.57,61.63z"/>
	<path class="st122" d="M231.71,109.96c8.84,0,16-7.16,16-16c0-8.84-7.17-16-16-16c-8.84,0-16,7.16-16,16
		C215.71,102.8,222.87,109.96,231.71,109.96z"/>
	<path class="st123" d="M272.85,100.1c3.39,0,6.14-2.75,6.14-6.14c0-3.39-2.75-6.14-6.14-6.14c-3.39,0-6.14,2.75-6.14,6.14
		C266.72,97.35,269.46,100.1,272.85,100.1z"/>
	<path class="st124" d="M314,109.94c8.83,0,15.98-7.15,15.98-15.98c0-8.83-7.15-15.98-15.98-15.98s-15.98,7.16-15.98,15.98
		C298.02,102.79,305.17,109.94,314,109.94z"/>
	<path class="st125" d="M211.14,141.47c3.51,0,6.36-2.85,6.36-6.36c0-3.51-2.85-6.36-6.36-6.36c-3.51,0-6.36,2.85-6.36,6.36
		C204.78,138.62,207.62,141.47,211.14,141.47z"/>
	<path class="st126" d="M252.28,150.35c8.42,0,15.25-6.83,15.25-15.25c0-8.42-6.83-15.25-15.25-15.25
		c-8.42,0-15.25,6.83-15.25,15.25C237.03,143.53,243.86,150.35,252.28,150.35z"/>
	<path class="st9" d="M293.43,140.31c2.88,0,5.21-2.33,5.21-5.21c0-2.88-2.33-5.21-5.21-5.21s-5.21,2.33-5.21,5.21
		C288.22,137.98,290.55,140.31,293.43,140.31z"/>
	<path class="st127" d="M334.57,152.74c9.74,0,17.63-7.89,17.63-17.63c0-9.74-7.89-17.63-17.63-17.63s-17.63,7.9-17.63,17.63
		C316.94,144.84,324.83,152.74,334.57,152.74z"/>
	<path class="st128" d="M231.71,185.47c5.09,0,9.22-4.13,9.22-9.22c0-5.09-4.13-9.22-9.22-9.22c-5.09,0-9.22,4.13-9.22,9.22
		C222.49,181.34,226.62,185.47,231.71,185.47z"/>
	<circle class="st9" cx="272.85" cy="176.25" r="10.23"/>
	<path class="st129" d="M314,184.15c4.36,0,7.9-3.54,7.9-7.9c0-4.36-3.54-7.9-7.9-7.9c-4.36,0-7.9,3.54-7.9,7.9
		C306.1,180.61,309.64,184.15,314,184.15z"/>
	<path class="st130" d="M355.14,192.37c8.9,0,16.12-7.22,16.12-16.12c0-8.9-7.22-16.12-16.12-16.12c-8.9,0-16.12,7.22-16.12,16.12
		C339.02,185.15,346.24,192.37,355.14,192.37z"/>
	<path class="st131" d="M211.14,234.23c9.3,0,16.84-7.54,16.84-16.84c0-9.3-7.54-16.84-16.84-16.84c-9.3,0-16.84,7.54-16.84,16.84
		C194.3,226.69,201.84,234.23,211.14,234.23z"/>
	<path class="st132" d="M252.28,235.84c10.19,0,18.45-8.26,18.45-18.45c0-10.19-8.26-18.45-18.45-18.45
		c-10.19,0-18.45,8.26-18.45,18.45C233.83,227.58,242.09,235.84,252.28,235.84z"/>
	<path class="st133" d="M293.43,219.62c1.23,0,2.23-1,2.23-2.23c0-1.23-1-2.23-2.23-2.23c-1.23,0-2.23,1-2.23,2.23
		C291.19,218.62,292.19,219.62,293.43,219.62z"/>
	<path class="st78" d="M334.57,232.64c8.42,0,15.25-6.83,15.25-15.25c0-8.42-6.82-15.25-15.25-15.25c-8.42,0-15.25,6.83-15.25,15.25
		C319.32,225.81,326.15,232.64,334.57,232.64z"/>
	<circle class="st134" cx="231.71" cy="258.54" r="8.1"/>
	<circle class="st9" cx="272.85" cy="258.54" r="9.67"/>
	<path class="st135" d="M314,269.74c6.19,0,11.21-5.02,11.21-11.21c0-6.19-5.02-11.2-11.21-11.2c-6.19,0-11.2,5.02-11.2,11.2
		C302.79,264.72,307.81,269.74,314,269.74z"/>
	<path class="st136" d="M355.14,262.12c1.98,0,3.58-1.6,3.58-3.58c0-1.98-1.6-3.58-3.58-3.58c-1.98,0-3.58,1.6-3.58,3.58
		C351.56,260.51,353.17,262.12,355.14,262.12z"/>
	<path class="st137" d="M211.14,311.66c6.61,0,11.98-5.36,11.98-11.98c0-6.61-5.36-11.98-11.98-11.98
		c-6.61,0-11.97,5.36-11.97,11.98C199.16,306.29,204.52,311.66,211.14,311.66z"/>
	<path class="st138" d="M252.28,308.72c4.99,0,9.04-4.05,9.04-9.04c0-4.99-4.05-9.04-9.04-9.04c-4.99,0-9.04,4.05-9.04,9.04
		C243.25,304.67,247.29,308.72,252.28,308.72z"/>
	<path class="st47" d="M293.43,315.86c8.93,0,16.18-7.24,16.18-16.18c0-8.94-7.25-16.18-16.18-16.18c-8.94,0-16.18,7.24-16.18,16.18
		C277.25,308.62,284.49,315.86,293.43,315.86z"/>
	<path class="st139" d="M334.57,304.46c2.64,0,4.78-2.14,4.78-4.78c0-2.64-2.14-4.78-4.78-4.78c-2.64,0-4.78,2.14-4.78,4.78
		C329.8,302.32,331.93,304.46,334.57,304.46z"/>
	<path class="st140" d="M231.71,349.86c4.99,0,9.04-4.05,9.04-9.04c0-4.99-4.05-9.04-9.04-9.04c-4.99,0-9.04,4.05-9.04,9.04
		C222.67,345.81,226.72,349.86,231.71,349.86z"/>
	<path class="st113" d="M272.85,349.56c4.83,0,8.74-3.91,8.74-8.74c0-4.83-3.91-8.74-8.74-8.74c-4.83,0-8.74,3.91-8.74,8.74
		C264.11,345.65,268.03,349.56,272.85,349.56z"/>
	<path class="st92" d="M314,351.66c5.99,0,10.84-4.85,10.84-10.84c0-5.98-4.85-10.84-10.84-10.84s-10.84,4.85-10.84,10.84
		C303.16,346.81,308.01,351.66,314,351.66z"/>
	<path class="st141" d="M355.14,350.32c5.24,0,9.49-4.25,9.49-9.49c0-5.24-4.25-9.49-9.49-9.49c-5.24,0-9.49,4.25-9.49,9.49
		C345.65,346.07,349.9,350.32,355.14,350.32z"/>
	<path class="st142" d="M211.14,389.64c4.24,0,7.67-3.43,7.67-7.67c0-4.24-3.43-7.67-7.67-7.67c-4.24,0-7.67,3.43-7.67,7.67
		C203.47,386.21,206.9,389.64,211.14,389.64z"/>
	<path class="st143" d="M252.28,398.16c8.94,0,16.19-7.25,16.19-16.19c0-8.94-7.25-16.19-16.19-16.19
		c-8.94,0-16.19,7.25-16.19,16.19C236.09,390.91,243.34,398.16,252.28,398.16z"/>
	<path class="st144" d="M293.43,384.39c1.34,0,2.42-1.08,2.42-2.42c0-1.33-1.08-2.42-2.42-2.42c-1.33,0-2.42,1.08-2.42,2.42
		C291.01,383.3,292.09,384.39,293.43,384.39z"/>
	<path class="st145" d="M334.57,393.91c6.59,0,11.94-5.35,11.94-11.94c0-6.59-5.35-11.94-11.94-11.94
		c-6.59,0-11.94,5.35-11.94,11.94C322.63,388.56,327.98,393.91,334.57,393.91z"/>
	<path class="st146" d="M231.71,439.68c9.15,0,16.57-7.42,16.57-16.57c0-9.15-7.42-16.57-16.57-16.57
		c-9.15,0-16.57,7.42-16.57,16.57C215.14,432.26,222.56,439.68,231.71,439.68z"/>
	<path class="st9" d="M272.85,431.11c4.42,0,8-3.58,8-8c0-4.42-3.58-8-8-8c-4.42,0-8,3.58-8,8
		C264.86,427.53,268.44,431.11,272.85,431.11z"/>
	<path class="st147" d="M314,428.99c3.25,0,5.88-2.63,5.88-5.88c0-3.25-2.63-5.88-5.88-5.88s-5.88,2.63-5.88,5.88
		C308.12,426.36,310.75,428.99,314,428.99z"/>
	<path class="st141" d="M355.14,438.52c8.51,0,15.4-6.9,15.4-15.41c0-8.51-6.9-15.4-15.4-15.4c-8.51,0-15.4,6.9-15.4,15.4
		C339.74,431.62,346.64,438.52,355.14,438.52z"/>
	<path class="st148" d="M211.14,473.99c5.37,0,9.73-4.36,9.73-9.73c0-5.37-4.36-9.73-9.73-9.73c-5.37,0-9.73,4.35-9.73,9.73
		C201.41,469.63,205.77,473.99,211.14,473.99z"/>
	<path class="st6" d="M252.28,475.18c6.03,0,10.92-4.89,10.92-10.92c0-6.03-4.89-10.92-10.92-10.92c-6.03,0-10.92,4.89-10.92,10.92
		C241.36,470.29,246.25,475.18,252.28,475.18z"/>
	<path class="st9" d="M293.43,475.41c6.16,0,11.16-5,11.16-11.16c0-6.16-5-11.16-11.16-11.16c-6.16,0-11.16,5-11.16,11.16
		C282.27,470.42,287.26,475.41,293.43,475.41z"/>
	<path class="st149" d="M334.57,471.6c4.06,0,7.35-3.29,7.35-7.35c0-4.06-3.29-7.35-7.35-7.35c-4.06,0-7.35,3.29-7.35,7.35
		C327.22,468.31,330.51,471.6,334.57,471.6z"/>
	<path class="st115" d="M11.67,23.34c6.45,0,11.67-5.23,11.67-11.67C23.34,5.23,18.12,0,11.67,0C5.23,0,0,5.23,0,11.67
		C0,18.12,5.23,23.34,11.67,23.34z"/>
	<path class="st116" d="M52.82,22.27c5.85,0,10.6-4.75,10.6-10.6c0-5.85-4.75-10.6-10.6-10.6c-5.85,0-10.6,4.75-10.6,10.6
		C42.22,17.53,46.96,22.27,52.82,22.27z"/>
	<path class="st117" d="M93.96,13.51c1.02,0,1.84-0.82,1.84-1.84c0-1.01-0.82-1.84-1.84-1.84c-1.02,0-1.84,0.82-1.84,1.84
		C92.12,12.69,92.95,13.51,93.96,13.51z"/>
	<path class="st9" d="M135.1,22.42c5.94,0,10.75-4.81,10.75-10.75c0-5.94-4.81-10.75-10.75-10.75c-5.93,0-10.75,4.81-10.75,10.75
		C124.36,17.61,129.17,22.42,135.1,22.42z"/>
	
		<ellipse transform="matrix(0.9997 -0.0227 0.0227 0.9997 -0.2196 4.0054)" class="st150" cx="176.25" cy="11.67" rx="6.03" ry="6.03"/>
	<path class="st119" d="M32.24,69.95c9.46,0,17.13-7.67,17.13-17.13c0-9.46-7.67-17.13-17.13-17.13c-9.46,0-17.13,7.67-17.13,17.13
		C15.11,62.28,22.78,69.95,32.24,69.95z"/>
	<path class="st120" d="M73.39,62.86c5.55,0,10.04-4.5,10.04-10.04c0-5.55-4.5-10.04-10.04-10.04c-5.55,0-10.04,4.5-10.04,10.04
		C63.35,58.36,67.84,62.86,73.39,62.86z"/>
	<path class="st121" d="M114.53,61.63c4.87,0,8.82-3.95,8.82-8.82c0-4.87-3.95-8.82-8.82-8.82c-4.87,0-8.82,3.95-8.82,8.82
		C105.71,57.68,109.66,61.63,114.53,61.63z"/>
	<path class="st151" d="M155.68,68.22c8.51,0,15.41-6.9,15.41-15.4c0-8.51-6.9-15.4-15.41-15.4c-8.51,0-15.4,6.9-15.4,15.4
		C140.27,61.32,147.17,68.22,155.68,68.22z"/>
	<path class="st123" d="M52.82,100.1c3.39,0,6.14-2.75,6.14-6.14c0-3.39-2.75-6.14-6.14-6.14c-3.39,0-6.14,2.75-6.14,6.14
		C46.68,97.35,49.43,100.1,52.82,100.1z"/>
	<path class="st124" d="M93.96,109.94c8.83,0,15.98-7.15,15.98-15.98c0-8.83-7.15-15.98-15.98-15.98s-15.98,7.16-15.98,15.98
		C77.98,102.79,85.13,109.94,93.96,109.94z"/>
	<path class="st152" d="M135.1,95.93c1.09,0,1.97-0.88,1.97-1.97c0-1.09-0.88-1.97-1.97-1.97c-1.09,0-1.97,0.88-1.97,1.97
		C133.13,95.05,134.02,95.93,135.1,95.93z"/>
	<path class="st145" d="M176.25,101.2c4,0,7.24-3.24,7.24-7.24c0-4-3.24-7.24-7.24-7.24c-4,0-7.23,3.24-7.23,7.24
		C169.01,97.96,172.25,101.2,176.25,101.2z"/>
	<path class="st126" d="M32.24,150.35c8.42,0,15.25-6.83,15.25-15.25c0-8.42-6.83-15.25-15.25-15.25c-8.42,0-15.25,6.83-15.25,15.25
		C16.99,143.53,23.82,150.35,32.24,150.35z"/>
	<path class="st9" d="M73.39,140.31c2.88,0,5.21-2.33,5.21-5.21c0-2.88-2.33-5.21-5.21-5.21s-5.21,2.33-5.21,5.21
		C68.18,137.98,70.51,140.31,73.39,140.31z"/>
	<path class="st127" d="M114.53,152.74c9.74,0,17.63-7.89,17.63-17.63c0-9.74-7.89-17.63-17.63-17.63s-17.63,7.9-17.63,17.63
		C96.9,144.84,104.79,152.74,114.53,152.74z"/>
	<path class="st153" d="M155.68,151.05c8.8,0,15.94-7.14,15.94-15.94c0-8.8-7.14-15.94-15.94-15.94c-8.8,0-15.94,7.14-15.94,15.94
		C139.73,143.91,146.87,151.05,155.68,151.05z"/>
	<path class="st128" d="M11.67,185.47c5.09,0,9.22-4.13,9.22-9.22c0-5.09-4.13-9.22-9.22-9.22c-5.09,0-9.22,4.13-9.22,9.22
		C2.45,181.34,6.58,185.47,11.67,185.47z"/>
	<circle class="st9" cx="52.82" cy="176.25" r="10.23"/>
	<path class="st129" d="M93.96,184.15c4.36,0,7.9-3.54,7.9-7.9c0-4.36-3.54-7.9-7.9-7.9c-4.36,0-7.9,3.54-7.9,7.9
		C86.06,180.61,89.6,184.15,93.96,184.15z"/>
	<path class="st130" d="M135.1,192.37c8.9,0,16.12-7.22,16.12-16.12c0-8.9-7.22-16.12-16.12-16.12c-8.9,0-16.12,7.22-16.12,16.12
		C118.98,185.15,126.2,192.37,135.1,192.37z"/>
	<path class="st130" d="M176.25,179.87c2,0,3.62-1.62,3.62-3.62c0-2-1.62-3.62-3.62-3.62c-2,0-3.62,1.62-3.62,3.62
		C172.63,178.25,174.25,179.87,176.25,179.87z"/>
	<path class="st132" d="M32.24,235.84c10.19,0,18.45-8.26,18.45-18.45c0-10.19-8.26-18.45-18.45-18.45s-18.45,8.26-18.45,18.45
		C13.79,227.58,22.06,235.84,32.24,235.84z"/>
	<path class="st133" d="M73.39,219.62c1.23,0,2.23-1,2.23-2.23c0-1.23-1-2.23-2.23-2.23c-1.23,0-2.23,1-2.23,2.23
		C71.16,218.62,72.15,219.62,73.39,219.62z"/>
	<path class="st78" d="M114.53,232.64c8.42,0,15.25-6.83,15.25-15.25c0-8.42-6.82-15.25-15.25-15.25c-8.42,0-15.25,6.83-15.25,15.25
		C99.29,225.81,106.11,232.64,114.53,232.64z"/>
	<path class="st154" d="M155.68,226.35c4.95,0,8.96-4.01,8.96-8.96c0-4.95-4.01-8.96-8.96-8.96c-4.95,0-8.96,4.01-8.96,8.96
		C146.72,222.34,150.73,226.35,155.68,226.35z"/>
	<circle class="st134" cx="11.67" cy="258.54" r="8.1"/>
	<circle class="st9" cx="52.82" cy="258.54" r="9.67"/>
	<path class="st135" d="M93.96,269.74c6.19,0,11.21-5.02,11.21-11.21c0-6.19-5.02-11.2-11.21-11.2c-6.19,0-11.2,5.02-11.2,11.2
		C82.76,264.72,87.77,269.74,93.96,269.74z"/>
	<path class="st136" d="M135.1,262.12c1.98,0,3.58-1.6,3.58-3.58c0-1.98-1.6-3.58-3.58-3.58c-1.98,0-3.58,1.6-3.58,3.58
		C131.52,260.51,133.13,262.12,135.1,262.12z"/>
	<path class="st136" d="M176.25,263.36c2.67,0,4.83-2.16,4.83-4.82c0-2.66-2.16-4.82-4.83-4.82c-2.66,0-4.82,2.16-4.82,4.82
		C171.42,261.2,173.58,263.36,176.25,263.36z"/>
	<path class="st138" d="M32.24,308.72c4.99,0,9.04-4.05,9.04-9.04c0-4.99-4.05-9.04-9.04-9.04c-4.99,0-9.04,4.05-9.04,9.04
		C23.21,304.67,27.25,308.72,32.24,308.72z"/>
	<path class="st47" d="M73.39,315.86c8.93,0,16.18-7.24,16.18-16.18c0-8.94-7.25-16.18-16.18-16.18c-8.94,0-16.18,7.24-16.18,16.18
		C57.21,308.62,64.45,315.86,73.39,315.86z"/>
	<path class="st139" d="M114.53,304.46c2.64,0,4.78-2.14,4.78-4.78c0-2.64-2.14-4.78-4.78-4.78c-2.64,0-4.78,2.14-4.78,4.78
		C109.76,302.32,111.89,304.46,114.53,304.46z"/>
	<path class="st155" d="M155.68,314.73c8.31,0,15.05-6.74,15.05-15.05c0-8.31-6.74-15.05-15.05-15.05
		c-8.31,0-15.05,6.74-15.05,15.05C140.63,307.99,147.37,314.73,155.68,314.73z"/>
	<path class="st140" d="M11.67,349.86c4.99,0,9.04-4.05,9.04-9.04c0-4.99-4.05-9.04-9.04-9.04c-4.99,0-9.04,4.05-9.04,9.04
		C2.63,345.81,6.68,349.86,11.67,349.86z"/>
	<path class="st113" d="M52.82,349.56c4.83,0,8.74-3.91,8.74-8.74c0-4.83-3.91-8.74-8.74-8.74c-4.83,0-8.74,3.91-8.74,8.74
		C44.08,345.65,47.99,349.56,52.82,349.56z"/>
	<path class="st92" d="M93.96,351.66c5.99,0,10.84-4.85,10.84-10.84c0-5.98-4.85-10.84-10.84-10.84c-5.99,0-10.84,4.85-10.84,10.84
		C83.12,346.81,87.97,351.66,93.96,351.66z"/>
	<path class="st141" d="M135.1,350.32c5.24,0,9.49-4.25,9.49-9.49c0-5.24-4.25-9.49-9.49-9.49c-5.24,0-9.49,4.25-9.49,9.49
		C125.61,346.07,129.86,350.32,135.1,350.32z"/>
	<path class="st24" d="M176.25,343.92c1.71,0,3.1-1.39,3.1-3.1c0-1.71-1.39-3.1-3.1-3.1c-1.71,0-3.1,1.39-3.1,3.1
		C173.15,342.54,174.54,343.92,176.25,343.92z"/>
	<path class="st143" d="M32.24,398.16c8.94,0,16.19-7.25,16.19-16.19c0-8.94-7.25-16.19-16.19-16.19c-8.94,0-16.19,7.25-16.19,16.19
		C16.05,390.91,23.3,398.16,32.24,398.16z"/>
	<path class="st144" d="M73.39,384.39c1.34,0,2.42-1.08,2.42-2.42c0-1.33-1.08-2.42-2.42-2.42c-1.33,0-2.42,1.08-2.42,2.42
		C70.97,383.3,72.05,384.39,73.39,384.39z"/>
	<path class="st145" d="M114.53,393.91c6.59,0,11.94-5.35,11.94-11.94c0-6.59-5.35-11.94-11.94-11.94
		c-6.59,0-11.94,5.35-11.94,11.94C102.59,388.56,107.94,393.91,114.53,393.91z"/>
	<path class="st156" d="M155.68,396.66c8.11,0,14.69-6.58,14.69-14.69c0-8.11-6.58-14.69-14.69-14.69
		c-8.11,0-14.69,6.58-14.69,14.69C140.99,390.08,147.56,396.66,155.68,396.66z"/>
	<path class="st9" d="M52.82,431.11c4.42,0,8-3.58,8-8c0-4.42-3.58-8-8-8c-4.42,0-8,3.58-8,8C44.82,427.53,48.4,431.11,52.82,431.11
		z"/>
	<path class="st147" d="M93.96,428.99c3.25,0,5.88-2.63,5.88-5.88c0-3.25-2.63-5.88-5.88-5.88s-5.88,2.63-5.88,5.88
		C88.08,426.36,90.71,428.99,93.96,428.99z"/>
	<path class="st141" d="M135.1,438.52c8.51,0,15.4-6.9,15.4-15.41c0-8.51-6.9-15.4-15.4-15.4c-8.51,0-15.4,6.9-15.4,15.4
		C119.7,431.62,126.6,438.52,135.1,438.52z"/>
	<path class="st28" d="M176.25,426.56c1.9,0,3.45-1.54,3.45-3.45c0-1.9-1.54-3.44-3.45-3.44c-1.9,0-3.44,1.54-3.44,3.44
		C172.8,425.02,174.34,426.56,176.25,426.56z"/>
	<path class="st6" d="M32.24,475.18c6.03,0,10.92-4.89,10.92-10.92c0-6.03-4.89-10.92-10.92-10.92c-6.03,0-10.92,4.89-10.92,10.92
		C21.33,470.29,26.21,475.18,32.24,475.18z"/>
	<path class="st9" d="M73.39,475.41c6.16,0,11.16-5,11.16-11.16c0-6.16-5-11.16-11.16-11.16c-6.16,0-11.16,5-11.16,11.16
		C62.23,470.42,67.22,475.41,73.39,475.41z"/>
	<path class="st149" d="M114.53,471.6c4.06,0,7.35-3.29,7.35-7.35c0-4.06-3.29-7.35-7.35-7.35c-4.06,0-7.35,3.29-7.35,7.35
		C107.18,468.31,110.47,471.6,114.53,471.6z"/>
	<path class="st157" d="M155.68,471.24c3.86,0,6.99-3.13,6.99-6.98c0-3.86-3.13-6.99-6.99-6.99c-3.86,0-6.99,3.13-6.99,6.99
		C148.69,468.11,151.82,471.24,155.68,471.24z"/>
</g>
</svg>
