<svg width="240" height="240" viewBox="0 0 240 240" fill="none" xmlns="http://www.w3.org/2000/svg">
<circle cx="120" cy="120" r="79.5" stroke="#44350D" stroke-opacity="0.1"/>
<circle cx="120" cy="120" r="119.5" stroke="#44350D" stroke-opacity="0.1"/>
<g filter="url(#filter0_f_1503_56207)">
<ellipse cx="120" cy="128" rx="40" ry="48" fill="url(#paint0_linear_1503_56207)" fill-opacity="0.4"/>
</g>
<circle cx="120" cy="120" r="48" fill="url(#paint1_linear_1503_56207)"/>
<path d="M120 129.467C121.225 129.467 122.245 128.528 122.348 127.307L123.941 108.285C124.033 107.182 123.659 106.092 122.91 105.277C122.162 104.464 121.106 104 120 104C118.894 104 117.837 104.464 117.089 105.277C116.34 106.092 115.967 107.182 116.059 108.285L117.652 127.307C117.755 128.528 118.775 129.467 120 129.467Z" fill="white"/>
<path d="M120 130.866C118.582 130.866 117.433 132.015 117.433 133.433C117.433 134.851 118.582 136 120 136C121.418 136 122.567 134.851 122.567 133.433C122.567 132.015 121.418 130.866 120 130.866Z" fill="white"/>
<circle cx="22" cy="191" r="8" fill="#78EAC4"/>
<circle cx="192" cy="26" r="8" fill="#EF8BBD"/>
<circle cx="42" cy="99" r="8" fill="#FFF3C2"/>
<circle cx="187" cy="79" r="8" fill="#FFF3C2"/>
<circle cx="124" cy="199" r="8" fill="#FFF3C2"/>
<circle cx="28" cy="42" r="8" fill="#8BB6EF"/>
<circle cx="230" cy="166" r="8" fill="#CAB4EF"/>
<defs>
<filter id="filter0_f_1503_56207" x="56" y="56" width="128" height="144" filterUnits="userSpaceOnUse" color-interpolation-filters="sRGB">
<feFlood flood-opacity="0" result="BackgroundImageFix"/>
<feBlend mode="normal" in="SourceGraphic" in2="BackgroundImageFix" result="shape"/>
<feGaussianBlur stdDeviation="12" result="effect1_foregroundBlur_1503_56207"/>
</filter>
<linearGradient id="paint0_linear_1503_56207" x1="80" y1="80" x2="174.426" y2="158.689" gradientUnits="userSpaceOnUse">
<stop stop-color="#FF9470"/>
<stop offset="1" stop-color="#FF7A4E"/>
</linearGradient>
<linearGradient id="paint1_linear_1503_56207" x1="72" y1="72" x2="168" y2="168" gradientUnits="userSpaceOnUse">
<stop stop-color="#FF9470"/>
<stop offset="1" stop-color="#FF7A4E"/>
</linearGradient>
</defs>
</svg>
